<svg xmlns="http://www.w3.org/2000/svg" fill="none" viewBox="0 0 150 115" height="115" width="150">
<path fill="black" d="M32 100C32.0061 99.997 53.8294 94.8603 75.429 94.8603C97.0255 94.8603 118.846 99.997 118.858 100H32ZM101.165 55.5419C92.4659 38.5215 75.4565 15.036 75.429 15L118.858 100C118.858 99.997 109.871 72.5803 101.165 55.5419ZM49.6927 55.5419C40.9904 72.5803 32 100 32 100L75.429 15C75.4044 15.036 58.392 38.5215 49.6927 55.5419Z"></path>
<path fill="black" d="M67.0678 89.0925L67.2946 89.7402C67.0157 89.8782 66.5653 90.0011 66.1853 90.0011C65.0087 90.0011 64.2763 89.1765 64.2763 88.067C64.2763 87.0174 64.8922 86.0369 66.1853 86.0369C66.6633 86.0369 67.0127 86.1358 67.2884 86.2558L67.0157 86.9425C66.7614 86.8135 66.4795 86.7386 66.2374 86.7386C65.4377 86.7386 65.1588 87.4493 65.1588 88.049C65.1588 88.8256 65.692 89.2994 66.2956 89.2994C66.6051 89.2964 66.8778 89.2005 67.0678 89.0925ZM75.4362 89.9051H76.2941V88.3399H77.8017V87.6622H76.2941V86.8165H77.8538V86.1328H75.4362V89.9051V89.9051ZM71.7285 86.1298L73.0951 89.9051H72.185L71.946 89.1885H70.5212L70.2791 89.9051H69.4426L70.8031 86.1298H71.7285ZM71.7407 88.5677L71.2413 86.8855L70.7357 88.5677H71.7407ZM81.9752 85.0953L81.5431 85.752H82.1314L82.8485 85.0953H81.9752ZM87.1445 87.6831L86.8656 87.5602C86.645 87.4642 86.3754 87.3533 86.3754 87.0924C86.3754 86.9245 86.4887 86.6726 86.9392 86.6726C87.2395 86.6726 87.5153 86.7536 87.742 86.8825L87.9933 86.2468C87.6746 86.0879 87.2854 86.0309 86.9392 86.0309C86.0904 86.0309 85.548 86.5197 85.548 87.1734C85.548 87.7971 85.9494 88.064 86.4642 88.2799L86.7492 88.3998C86.9698 88.4898 87.2425 88.6097 87.2425 88.8856C87.2425 89.2005 86.9698 89.3414 86.6113 89.3414C86.2896 89.3414 85.9372 89.2275 85.7166 89.0925L85.4868 89.7492C85.735 89.8752 86.1118 89.9981 86.5684 89.9981C87.362 89.9981 88.0821 89.6653 88.0821 88.7687C88.0791 88.1599 87.644 87.8961 87.1445 87.6831ZM81.3685 88.2439H82.8485V87.5872H81.3685V86.8135H82.9006V86.1358H80.5197V89.9051H82.9833V89.2275H81.3685V88.2439V88.2439ZM93.5763 68.4767H81.0896V71.0946H85.3427V81.0951H88.6705V71.0946H92.2403L93.5763 68.4767ZM64.6471 68.4767V81.0951H73.1319V78.4773H67.9748V76.0933H73.1319V73.4755H67.9748V71.0916H73.1319V68.4737H64.6471V68.4767ZM98.2737 67.943H98.4116L98.6935 68.4767H98.9846L98.6781 67.943C98.8988 67.931 99.0244 67.841 99.0244 67.6161C99.0244 67.4842 98.9907 67.3642 98.8681 67.2893C98.7793 67.2353 98.6383 67.2323 98.528 67.2323H98.0316V68.4797H98.2767V67.943H98.2737ZM98.2737 67.4122H98.4667C98.5923 67.4122 98.7701 67.4122 98.7701 67.5681C98.7701 67.7271 98.6751 67.763 98.5311 67.763H98.2737V67.4122ZM78.7547 68.4767H75.427V81.0951H83.0476V78.4773H78.7547V68.4767V68.4767ZM98.5096 69.0015C99.1592 69.0015 99.6893 68.4797 99.6893 67.841C99.6893 67.2083 99.1592 66.6865 98.5096 66.6865C97.8569 66.6865 97.3238 67.2053 97.3238 67.841C97.3268 68.4797 97.8569 69.0015 98.5096 69.0015ZM98.5096 66.9114C99.0367 66.9114 99.4656 67.3252 99.4656 67.844C99.4656 68.3658 99.0367 68.7826 98.5096 68.7826C97.9795 68.7826 97.5505 68.3628 97.5505 67.844C97.5505 67.3252 97.9826 66.9114 98.5096 66.9114ZM56.4718 68.4767C54.811 68.4767 51.5415 68.4767 51.5415 68.4767V81.0951H56.4718C60.0263 81.0951 62.9066 78.2763 62.9066 74.7919C62.9066 71.3105 60.0232 68.4767 56.4718 68.4767ZM55.8743 78.4773C54.9183 78.4773 54.8692 78.4773 54.8692 78.4773V71.0946H55.8743C57.961 71.0946 59.6463 72.7468 59.6463 74.7889C59.6433 76.822 57.9579 78.4773 55.8743 78.4773ZM96.1441 68.4767L89.7123 81.0951H102.576L96.1441 68.4767ZM96.1441 74.1682L98.2982 78.4773H93.9869L96.1441 74.1682Z"></path>
</svg>
