<svg xmlns="http://www.w3.org/2000/svg" fill="none" viewBox="0 0 150 115" height="115" width="150">
<path fill="black" d="M70.1937 42.6068L66.0977 30.4707C66.3213 30.3411 66.5567 30.2115 66.7921 30.0937L65.6857 26.6649C65.4032 26.6885 65.1207 26.7238 64.85 26.7592C64.7205 26.771 64.5911 26.7945 64.4733 26.8063C64.4616 26.8063 64.438 26.8063 64.4263 26.8181L69.8524 42.8778C69.9583 42.7835 70.076 42.701 70.1937 42.6068Z"></path>
<path fill="black" d="M68.8866 43.679L63.5664 32.0731C63.7783 31.9199 63.9901 31.7786 64.2138 31.6372L62.2481 27.2069C61.9657 27.2658 61.6949 27.3365 61.4242 27.3954C61.3065 27.4308 61.177 27.4543 61.0593 27.4897C61.0358 27.4897 61.024 27.5015 61.0005 27.5015L68.557 43.9735C68.6747 43.8793 68.7807 43.7732 68.8866 43.679Z"></path>
<path fill="black" d="M67.7323 44.8102L61.2468 33.8641C61.4469 33.6992 61.6353 33.5342 61.8354 33.3693L58.8575 28.1496C58.5868 28.2438 58.316 28.3381 58.0453 28.4441C57.9276 28.4913 57.8217 28.5266 57.704 28.5737C57.6804 28.5855 57.6687 28.5855 57.6451 28.5973L67.438 45.1401C67.5322 45.034 67.6381 44.9162 67.7323 44.8102Z"></path>
<path fill="black" d="M66.7186 46.0004L59.1621 35.8203C59.3387 35.6318 59.5152 35.455 59.7035 35.2783L55.5368 29.5166C55.2779 29.6462 55.0189 29.7758 54.76 29.9054C54.6541 29.9643 54.5481 30.0115 54.4422 30.0704C54.4187 30.0822 54.3951 30.0939 54.3716 30.1057L66.4362 46.3539C66.5303 46.2361 66.6245 46.1183 66.7186 46.0004Z"></path>
<path fill="black" d="M65.8378 47.2255L57.2925 37.9291C57.4455 37.7288 57.6103 37.5402 57.7751 37.3399L52.349 31.2837C52.1018 31.4369 51.8546 31.6018 51.6192 31.7668C51.5251 31.8375 51.4309 31.8964 51.3367 31.9671C51.3132 31.9789 51.2897 32.0024 51.2661 32.0142L65.5906 47.5908C65.673 47.4612 65.7554 47.3434 65.8378 47.2255Z"></path>
<path fill="black" d="M65.0737 48.4748L55.6456 40.1681C55.7869 39.956 55.9281 39.7557 56.0694 39.5554L49.3603 33.4756C49.1367 33.6405 48.913 33.8291 48.6894 34.0294C48.607 34.1001 48.5246 34.1708 48.4304 34.2532C48.4069 34.265 48.3951 34.2886 48.3716 34.3121L64.8736 48.8519C64.9324 48.7223 65.003 48.5927 65.0737 48.4748Z"></path>
<path fill="black" d="M64.2614 50.1361C64.3203 50.0065 64.3791 49.8651 64.438 49.7355L54.2331 42.4892C54.3508 42.2771 54.4803 42.0533 54.598 41.8412L46.6177 36.0088C46.4058 36.2209 46.2057 36.433 46.0174 36.645C45.935 36.7275 45.8644 36.81 45.7938 36.9043C45.7702 36.9278 45.7467 36.9514 45.7231 36.975C45.7231 36.975 54.0095 42.878 54.0212 42.8663L64.2614 50.1361Z"></path>
<path fill="black" d="M63.9069 51.0078L53.0311 44.8926C53.1371 44.6688 53.2312 44.4449 53.3372 44.221L44.1681 38.8953C43.9915 39.1309 43.815 39.3666 43.6502 39.614C43.5913 39.7083 43.5207 39.7908 43.4619 39.885C43.4383 39.9086 43.4265 39.9439 43.403 39.9675L63.7539 51.4202C63.801 51.2788 63.848 51.1492 63.9069 51.0078Z"></path>
<path fill="black" d="M63.4837 52.2921L52.0665 47.367C52.1489 47.1313 52.2313 46.9075 52.3137 46.6718L42.0853 42.0884C41.9441 42.3476 41.791 42.6068 41.6498 42.866C41.6027 42.9603 41.5439 43.0546 41.4968 43.1488C41.485 43.1842 41.4615 43.2077 41.4497 43.2431L63.3778 52.7045C63.4013 52.5749 63.4367 52.4335 63.4837 52.2921Z"></path>
<path fill="black" d="M63.1532 53.5882L51.3005 49.8884C51.3594 49.6528 51.4182 49.4171 51.4888 49.1815L40.3659 45.5406C40.2482 45.8116 40.1422 46.0944 40.0363 46.3654C40.001 46.4715 39.9657 46.5657 39.9186 46.66C39.9068 46.6953 39.8951 46.7307 39.8833 46.766L63.0591 54.0006C63.0944 53.8709 63.1297 53.7296 63.1532 53.5882Z"></path>
<path fill="black" d="M62.9304 54.8725L50.7835 52.4453C50.8188 52.2096 50.8658 51.9622 50.9129 51.7266L39.1191 49.2051C39.0367 49.4879 38.9661 49.7824 38.8954 50.077C38.8719 50.183 38.8484 50.2773 38.8248 50.3833C38.813 50.4187 38.813 50.454 38.8013 50.4894L62.8833 55.2967C62.8951 55.1553 62.9069 55.0139 62.9304 54.8725Z"></path>
<path fill="black" d="M62.7881 56.1686L50.4646 55.0375C50.4881 54.79 50.4999 54.5544 50.5352 54.307L38.3176 53.0109C38.2705 53.3054 38.2352 53.6 38.1999 53.9063C38.1881 54.0124 38.1764 54.1184 38.1646 54.2245C38.1646 54.2598 38.1528 54.2952 38.1528 54.3305L62.7646 56.5928C62.7763 56.4514 62.7763 56.31 62.7881 56.1686Z"></path>
<path fill="black" d="M50.3829 58.0538L62.7535 57.8889C62.7535 57.7592 62.7535 57.6296 62.7535 57.5118C62.7535 57.5 62.7535 57.4765 62.7535 57.4647L50.3829 57.6296C50.3829 57.5943 50.3829 57.5472 50.3829 57.5118C50.3829 57.3115 50.3829 57.1112 50.3946 56.9109H38.0123C38.0005 57.0994 38.0005 57.2997 38.0005 57.5C38.0005 57.5943 38.0005 57.7003 38.0005 57.7946C38.0005 57.9006 38.0005 58.0067 38.0005 58.1127C38.0005 58.1481 38.0005 58.1834 38.0005 58.2305L46.2633 58.1127C46.275 58.1127 50.3829 58.0774 50.3829 58.0538Z"></path>
<path fill="black" d="M62.788 58.7489L50.5704 60.2099C50.5351 59.9743 50.4998 59.7269 50.4763 59.4912L38.1763 60.7873C38.2116 61.0819 38.2469 61.3764 38.2822 61.6828C38.294 61.7888 38.3057 61.8949 38.3293 62.0009C38.3293 62.0362 38.3411 62.0716 38.3411 62.1069L62.8233 59.1849C62.7998 59.0317 62.7998 58.8903 62.788 58.7489Z"></path>
<path fill="black" d="M62.9186 60.045L51.1247 62.7433C51.0658 62.5194 50.9952 62.2955 50.9481 62.0717L38.8247 64.652C38.8953 64.9348 38.9542 65.2058 39.0366 65.4886C39.0601 65.5829 39.0837 65.6653 39.1072 65.7596C39.119 65.8067 39.1307 65.8539 39.1425 65.901L62.9774 60.4574C62.9539 60.3278 62.9303 60.1864 62.9186 60.045Z"></path>
<path fill="black" d="M63.8711 63.9215L54.6784 69.424C54.5372 69.259 54.4077 69.0941 54.2665 68.9173L43.4849 75.1739C43.6379 75.3978 43.8027 75.6216 43.9557 75.8337C44.0263 75.9162 44.0734 75.9869 44.1205 76.0576C44.1558 76.1047 44.1911 76.1518 44.2264 76.199L64.0358 64.3221C63.977 64.1925 63.9299 64.0511 63.8711 63.9215Z"></path>
<path fill="black" d="M64.4022 65.2061L56.3984 71.227C56.2453 71.0856 56.0806 70.9324 55.9275 70.7792L45.8286 78.1551C46.0052 78.3554 46.1935 78.5557 46.37 78.756C46.4289 78.815 46.4878 78.8857 46.5466 78.9446C46.5819 78.9799 46.6172 79.027 46.6643 79.0624L64.5787 65.5949C64.5317 65.4653 64.461 65.3357 64.4022 65.2061Z"></path>
<path fill="black" d="M65.0496 66.4784L58.3169 72.7467C58.1404 72.6289 57.9638 72.4993 57.799 72.3697L48.5005 80.7942C48.7006 80.971 48.9007 81.1477 49.1125 81.3245C49.1832 81.3834 49.2538 81.4423 49.3244 81.5012C49.3597 81.5365 49.4068 81.5719 49.4421 81.6072L65.2732 66.8672C65.1908 66.7376 65.1202 66.608 65.0496 66.4784Z"></path>
<path fill="black" d="M65.8019 67.7391L60.3523 73.9956C60.164 73.9014 59.9756 73.7953 59.7991 73.6893L51.3951 83.08C51.6187 83.2332 51.8306 83.3746 52.0542 83.5278C52.1366 83.5749 52.2072 83.6338 52.2896 83.6809C52.3367 83.7045 52.372 83.7398 52.4191 83.7634L66.0491 68.1161C65.9667 67.9865 65.8843 67.8687 65.8019 67.7391Z"></path>
<path fill="black" d="M66.6984 68.9766L62.5082 74.9503C62.3081 74.8796 62.1197 74.7972 61.9196 74.7265L54.5161 84.9773C54.7515 85.0951 54.9869 85.2248 55.2223 85.3426C55.3047 85.3897 55.3989 85.4251 55.4813 85.4722C55.5284 85.4958 55.5637 85.5075 55.6108 85.5311L66.9809 69.33C66.8749 69.2004 66.7808 69.0944 66.6984 68.9766Z"></path>
<path fill="black" d="M67.7081 70.166L64.6949 75.586C64.4948 75.5389 64.2947 75.4917 64.0829 75.4328L57.7622 86.4496C58.0094 86.5438 58.2566 86.6381 58.492 86.7206C58.5861 86.7559 58.6803 86.7912 58.7745 86.8148C58.8215 86.8266 58.8568 86.8502 58.9039 86.8619L68.0142 70.4841C67.92 70.3899 67.8141 70.2838 67.7081 70.166Z"></path>
<path fill="black" d="M68.8743 71.3213L66.8968 75.9636C66.685 75.9401 66.4849 75.9165 66.2848 75.8929L61.1294 87.5459C61.3766 87.6048 61.6355 87.6755 61.8827 87.7344C61.9769 87.758 62.0828 87.7816 62.177 87.8051C62.224 87.8169 62.2593 87.8287 62.3064 87.8287L69.2156 71.6276C69.0979 71.5216 68.992 71.4155 68.8743 71.3213Z"></path>
<path fill="black" d="M70.1932 72.3932L69.0632 76.0458C68.9808 76.0458 68.8984 76.0458 68.816 76.0458C68.7101 76.0458 68.6042 76.0458 68.4865 76.0458L64.5552 88.2054C64.8024 88.2408 65.0378 88.2643 65.2849 88.2997C65.3791 88.3115 65.4733 88.3232 65.5674 88.335C65.6145 88.335 65.6734 88.3468 65.7204 88.3468L70.558 72.6524C70.4286 72.5699 70.3109 72.4874 70.1932 72.3932Z"></path>
<path fill="black" d="M77.0897 40.9219L77.2545 39.3784C77.1132 39.4137 76.9602 39.4491 76.819 39.4844L77.9842 26.6767C77.8665 26.6885 77.7488 26.7003 77.6194 26.7121L76.4541 39.5669L76.3599 40.5684C76.3717 40.5802 76.3953 40.5802 76.407 40.592C76.5012 40.6391 76.6071 40.6862 76.7013 40.7334C76.8308 40.7923 76.9602 40.8512 77.0897 40.9219Z"></path>
<path fill="black" d="M74.8071 27.1717C74.8777 27.1599 74.9366 27.1481 75.0072 27.1245C74.9366 27.1128 74.8777 27.101 74.8071 27.0892C74.7835 27.0892 74.7482 27.0774 74.7247 27.0774C74.607 27.0421 74.4893 27.0303 74.3716 27.0067V27.2659L74.5481 40.1914C74.6894 40.1325 74.8306 40.0854 74.9719 40.0265L74.8071 27.1717Z"></path>
<path fill="black" d="M72.8283 40.9573C72.9577 40.8866 73.099 40.8159 73.2285 40.757L71.7219 27.9846C71.9808 27.9022 72.228 27.8197 72.4869 27.749L72.381 26.7003C72.1103 26.665 71.8396 26.6414 71.5571 26.6179C71.4276 26.6061 71.2864 26.5943 71.1569 26.5825C71.1451 26.5825 71.1334 26.5825 71.1216 26.5825L71.2981 28.126L72.8283 40.9573Z"></path>
<path fill="black" d="M71.2617 41.8645C71.3912 41.782 71.5206 41.6995 71.6383 41.6288L68.8135 29.104C69.0606 28.9979 69.296 28.8919 69.5432 28.7976L69.0606 26.5C68.9782 26.5 68.8959 26.5 68.8135 26.5C68.6134 26.5 68.425 26.5 68.2367 26.5118C68.1072 26.5118 67.9778 26.5236 67.8483 26.5236C67.8365 26.5236 67.8248 26.5236 67.813 26.5236L68.4368 29.2807L71.2617 41.8645Z"></path>
<path fill="black" d="M63.1411 61.3291L52.0064 65.1467C51.9123 64.9464 51.8299 64.7461 51.7475 64.5458L39.9536 68.3987C40.0478 68.6579 40.1537 68.9171 40.2479 69.1645C40.2832 69.2352 40.3067 69.3177 40.342 69.4002C40.3656 69.4591 40.3891 69.5062 40.4127 69.5651L63.2235 61.7651C63.2 61.6119 63.1647 61.4705 63.1411 61.3291Z"></path>
<path fill="black" d="M63.4598 62.6254L53.2078 67.3856C53.0901 67.1971 52.9842 67.0203 52.8665 66.8318L41.5199 71.9101C41.6494 72.1575 41.7788 72.3932 41.9083 72.6289C41.9436 72.6995 41.9907 72.7702 42.0378 72.8527C42.0613 72.8999 42.0966 72.9588 42.1202 73.0059L63.5775 63.0378C63.5422 62.9082 63.4951 62.7668 63.4598 62.6254Z"></path>
<path fill="black" d="M71.6533 73.3829L71.1589 75.9044C70.9824 75.928 70.8058 75.9398 70.6293 75.9633L67.981 88.4882C68.2046 88.5 68.44 88.5 68.6636 88.5C68.7107 88.5 68.7578 88.5 68.8049 88.5C68.8402 88.5 68.8755 88.5 68.9108 88.5C68.9697 88.5 69.0285 88.5 69.0874 88.5L72.0182 73.6186C71.9122 73.5479 71.7828 73.4654 71.6533 73.3829Z"></path>
<path fill="black" d="M73.1451 75.5392C72.9921 75.5745 72.8273 75.6099 72.6743 75.6452L71.3442 88.394C71.5561 88.3822 71.768 88.3586 71.9798 88.3351C72.0505 88.3233 72.1329 88.3233 72.2035 88.3115C72.2741 88.2997 72.3447 88.2997 72.4153 88.2879L73.6748 74.4434C73.5335 74.3845 73.404 74.3138 73.2628 74.2549L73.1451 75.5392Z"></path>
<path fill="black" d="M75.3948 74.844C75.383 74.8558 75.3594 74.8558 75.3477 74.8675C75.2771 74.8911 75.2064 74.9147 75.1358 74.95C75.0887 74.9618 75.0534 74.9854 75.0063 74.9972C74.8769 75.0443 74.7474 75.0914 74.6179 75.1268V87.958C74.7474 87.9344 74.8769 87.9109 75.0063 87.8755C75.1123 87.8991 75.2064 87.9109 75.3124 87.9344C75.383 87.9462 75.4536 87.958 75.5242 87.9698V87.7577L75.3948 74.844Z"></path>
<path fill="black" d="M77.266 75.763L77.0894 74.0898C77.0776 74.0898 77.0776 74.1016 77.0659 74.1016C76.9953 74.137 76.9364 74.1723 76.8658 74.2077C76.7128 74.2784 76.5598 74.3491 76.4067 74.4198L77.7368 87.1921C77.9487 87.1332 78.1605 87.0625 78.3724 86.9918L78.5372 88.4057C78.6078 88.4175 78.6784 88.4175 78.749 88.4293L78.5725 86.9329L77.266 75.763Z"></path>
<path fill="black" d="M78.6434 73.2062C78.5728 73.2533 78.5139 73.2887 78.4551 73.324C78.3256 73.4065 78.1962 73.4772 78.0667 73.5597L80.715 86.1081C80.9033 86.0257 81.0916 85.9432 81.28 85.8607L81.8685 88.5C81.9391 88.5 82.0097 88.5 82.0804 88.4882L81.4683 85.7664L78.6434 73.2062Z"></path>
<path fill="black" d="M80.1516 72.3932L80.081 72.1929C80.0221 72.24 79.9633 72.2871 79.9044 72.3343C79.7867 72.4285 79.669 72.511 79.5396 72.6053L83.4708 84.7885C83.6474 84.6942 83.8239 84.5882 84.0005 84.4939L85.2717 88.2525C85.3423 88.2408 85.4129 88.229 85.4836 88.229L84.1888 84.3996L80.1516 72.3932Z"></path>
<path fill="black" d="M81.6681 71.7687L81.3738 71.097C81.3738 71.097 81.3738 71.097 81.362 71.1088C81.3032 71.156 81.2561 71.2149 81.1972 71.262C81.0913 71.3563 80.9854 71.4623 80.8677 71.5566L86.0348 83.2331C86.1996 83.1153 86.3644 83.0092 86.5292 82.8914L88.6832 87.5927C88.7538 87.5691 88.8244 87.5573 88.895 87.5455L86.7058 82.7618L81.6681 71.7687Z"></path>
<path fill="black" d="M82.4906 69.9542L82.4789 69.966C82.4318 70.0131 82.3847 70.0603 82.3376 70.1192C82.2552 70.2134 82.1611 70.3077 82.0669 70.402L88.3993 81.4422C88.5406 81.3244 88.6818 81.2066 88.8231 81.077L92.0481 86.5205C92.1187 86.497 92.1776 86.4734 92.2482 86.4381L88.9878 80.9238L82.4906 69.9542Z"></path>
<path fill="black" d="M83.4826 68.7406C83.4826 68.7524 83.4826 68.7524 83.4826 68.7406C83.4355 68.8113 83.3884 68.8584 83.3531 68.9173C83.2707 69.0234 83.2001 69.1176 83.1177 69.2119L90.533 79.4863C90.6624 79.3567 90.7919 79.2271 90.9214 79.0975L95.3353 85.0477C95.3941 85.0124 95.4647 84.977 95.5236 84.9534L91.0626 78.9443L83.4826 68.7406Z"></path>
<path fill="black" d="M84.3535 67.5034C84.3417 67.5152 84.3417 67.5152 84.3535 67.5034C84.3064 67.5741 84.2711 67.633 84.2358 67.6919C84.1652 67.798 84.0945 67.904 84.0239 68.0101L92.4397 77.4126C92.5574 77.2712 92.6751 77.1298 92.781 76.9884L98.4661 83.1743C98.525 83.1389 98.5838 83.0918 98.6427 83.0564L92.9105 76.8235L84.3535 67.5034Z"></path>
<path fill="black" d="M85.0799 66.2427C85.0799 66.2545 85.0799 66.2545 85.0799 66.2427C85.0445 66.3134 85.0092 66.3723 84.9739 66.4312C84.9151 66.5372 84.8562 66.6433 84.7974 66.7493L94.1195 75.1857C94.2254 75.0443 94.3195 74.8911 94.4255 74.7379L101.405 80.8884C101.464 80.8413 101.511 80.7942 101.57 80.7471L94.555 74.5612L85.0799 66.2427Z"></path>
<path fill="black" d="M85.7282 64.9938L85.7047 64.9702C85.6812 65.0409 85.6458 65.0998 85.6105 65.1705C85.5635 65.2766 85.5046 65.3944 85.4575 65.5004L95.5682 72.8881C95.6506 72.7349 95.7448 72.5818 95.8272 72.4286L104.055 78.2728C104.102 78.2138 104.149 78.1667 104.196 78.1078L95.9213 72.2283L85.7282 64.9938Z"></path>
<path fill="black" d="M86.4478 63.8273L86.2006 63.6859C86.177 63.7566 86.1535 63.8273 86.13 63.8862C86.0829 64.004 86.0476 64.1101 86.0005 64.2161L96.7939 70.4845C96.8645 70.3195 96.9351 70.1663 97.0057 70.0014L106.41 75.2918C106.446 75.2329 106.493 75.1739 106.528 75.115L97.0881 69.8011L86.4478 63.8273Z"></path>
<path fill="black" d="M87.046 62.5901L86.6105 62.3898C86.6105 62.3898 86.6105 62.3898 86.6105 62.4016C86.587 62.4722 86.5752 62.5429 86.5517 62.6136C86.5164 62.7315 86.4811 62.8375 86.4575 62.9553L97.8159 68.0454C97.8747 67.8805 97.9336 67.7155 97.9924 67.5505L108.421 72.0515C108.456 71.9926 108.492 71.9219 108.527 71.863L98.0631 67.3502L87.046 62.5901Z"></path>
<path fill="black" d="M87.5075 61.2941L86.9073 61.0938V61.1055C86.8955 61.1762 86.8837 61.2469 86.8602 61.3176C86.8366 61.4354 86.8131 61.5415 86.7896 61.6593L98.5834 65.5122C98.6305 65.3473 98.6658 65.1823 98.7129 65.0056L109.989 68.5168C110.012 68.4461 110.036 68.3872 110.059 68.3165L98.76 64.7935L87.5075 61.2941Z"></path>
<path fill="black" d="M87.8243 59.9508L87.1063 59.7976V59.8094C87.0945 59.8801 87.0828 59.9508 87.0828 60.0215C87.071 60.1393 87.0475 60.2571 87.0357 60.3632L99.1474 62.9554C99.1827 62.7904 99.2062 62.6137 99.2297 62.4487L111.13 64.8288C111.141 64.7581 111.165 64.6874 111.177 64.6167L99.2651 62.2366L87.8243 59.9508Z"></path>
<path fill="black" d="M88.0119 58.5958L87.235 58.5133V58.5251C87.235 58.5958 87.2232 58.6665 87.2232 58.7372C87.2115 58.855 87.2115 58.9728 87.1997 59.0789L99.4997 60.375C99.5115 60.21 99.5232 60.0333 99.5468 59.8565L111.811 60.9877C111.823 60.917 111.823 60.8463 111.835 60.7756L99.5585 59.6562L88.0119 58.5958Z"></path>
<path fill="black" d="M88.0587 57.2172H87.2583V57.229C87.2583 57.2997 87.2583 57.3704 87.2583 57.441V57.5C87.2583 57.5942 87.2583 57.6885 87.2583 57.7827H99.6289C99.6289 57.6885 99.6289 57.5942 99.6289 57.5C99.6289 57.4175 99.6289 57.3468 99.6289 57.2761L112 57.1111C112 57.0404 112 56.9697 112 56.899L99.6289 57.064L88.0587 57.2172Z"></path>
<path fill="black" d="M87.9531 55.8505L87.188 55.9329V55.9447C87.1998 56.0154 87.1998 56.0861 87.1998 56.1568C87.2115 56.2746 87.2115 56.3925 87.2233 56.4985L99.4762 55.2024C99.4527 55.0375 99.4291 54.8607 99.4056 54.6958L111.694 53.223C111.682 53.1523 111.67 53.0816 111.658 53.0109L99.3703 54.4837L87.9531 55.8505Z"></path>
<path fill="black" d="M87.7066 54.4954L87.0357 54.6368V54.6486C87.0475 54.7193 87.0592 54.79 87.071 54.8607C87.0828 54.9785 87.1063 55.0846 87.1181 55.2024L98.9943 52.6574C98.9473 52.4924 98.9002 52.3275 98.8531 52.1625L110.941 49.4054C110.918 49.3347 110.906 49.264 110.882 49.1933L98.7942 51.9504L87.7066 54.4954Z"></path>
<path fill="black" d="M87.331 53.1761L86.7896 53.3528C86.7896 53.3528 86.7896 53.3528 86.7896 53.3646C86.8013 53.4353 86.8249 53.506 86.8366 53.5767C86.8602 53.6945 86.8837 53.8005 86.9073 53.9184L98.1597 50.2422C98.0891 50.089 98.0184 49.9241 97.9478 49.7709L109.706 45.753C109.683 45.6823 109.647 45.6234 109.624 45.5527L97.8654 49.5706L87.331 53.1761Z"></path>
<path fill="black" d="M86.8107 51.9032L86.4458 52.0682C86.4693 52.1389 86.4929 52.2096 86.5047 52.2803C86.54 52.3981 86.5753 52.5041 86.5988 52.622L96.992 47.9678C96.9096 47.8264 96.8155 47.6733 96.7213 47.5319L108.021 42.2886C107.985 42.2297 107.95 42.159 107.915 42.1001L96.6036 47.3551L86.8107 51.9032Z"></path>
<path fill="black" d="M86.0005 50.7488L86.2241 51.3615C86.2241 51.3615 86.2594 51.3497 86.3183 51.3144L95.5933 45.9179C95.4756 45.7765 95.3697 45.6352 95.252 45.4938L95.0989 45.588C95.1931 45.5291 95.252 45.4938 95.252 45.4938L105.975 39.0722C105.928 39.0133 105.892 38.9544 105.845 38.8955L95.1107 45.3288L86.0005 50.7488Z"></path>
<path fill="black" d="M87.4938 47.9798L85.4458 49.4762C85.4458 49.488 85.4576 49.4998 85.4576 49.5116C85.4929 49.5823 85.5164 49.6412 85.5517 49.7119C85.6106 49.8297 85.6577 49.9593 85.7165 50.0771L93.9087 44.0798C93.7792 43.9502 93.6497 43.8324 93.5085 43.7145L103.537 36.1737C103.49 36.1266 103.443 36.0676 103.384 36.0205L93.3437 43.5731L87.4938 47.9798Z"></path>
<path fill="black" d="M84.7739 48.2036C84.7739 48.2036 84.7739 48.2154 84.7739 48.2036C84.821 48.2861 84.8681 48.3685 84.9152 48.4628C84.974 48.5688 85.0329 48.6749 85.0917 48.7927L92.0362 42.5008C91.9067 42.4066 91.7655 42.3123 91.636 42.218L100.852 33.6403C100.77 33.5696 100.699 33.5107 100.629 33.4518L91.3888 42.0531L84.7739 48.2036Z"></path>
<path fill="black" d="M83.9888 46.9664C84.0005 46.9664 84.0005 46.9664 83.9888 46.9664C84.0476 47.0489 84.1065 47.1313 84.1536 47.2138C84.2242 47.3199 84.2948 47.4259 84.3537 47.5319L90.0034 41.2165C89.8622 41.134 89.7091 41.0633 89.5679 40.9808L97.866 31.4487C97.7836 31.4016 97.7012 31.3427 97.6188 31.2955L89.2972 40.8512L83.9888 46.9664Z"></path>
<path fill="black" d="M83.0825 45.7413L83.0943 45.7531C83.1531 45.8238 83.212 45.8945 83.2708 45.9652C83.3532 46.0712 83.4239 46.1655 83.5063 46.2715L87.8848 40.2035C87.7318 40.1446 87.5788 40.0856 87.4258 40.0267L94.7234 29.6345C94.641 29.5874 94.5468 29.552 94.4644 29.5049L87.155 39.9207L83.0825 45.7413Z"></path>
<path fill="black" d="M82.5261 43.6788L82.02 44.5625L82.0318 44.5743C82.1024 44.645 82.173 44.7157 82.2319 44.7864C82.326 44.8924 82.432 44.9985 82.5261 45.1045L85.7277 39.5196C85.5629 39.4724 85.3981 39.4371 85.2215 39.4017L91.4127 28.2554C91.3186 28.22 91.2362 28.1965 91.142 28.1611L84.9273 39.331L82.5261 43.6788Z"></path>
<path fill="black" d="M81.0563 42.9485L80.8444 43.4316C80.8444 43.4316 80.8444 43.4316 80.8562 43.4316C80.9268 43.5023 81.0092 43.5612 81.0798 43.6319C81.1857 43.7261 81.2917 43.8322 81.4094 43.9264L83.5516 39.0838C83.3868 39.0602 83.2102 39.0484 83.0455 39.0249L88.0596 27.2541C87.9654 27.2305 87.8713 27.2069 87.7771 27.1952L82.7277 39.0131L81.0563 42.9485Z"></path>
<path fill="black" d="M79.481 42.3594C79.4927 42.3712 79.5045 42.3712 79.5163 42.383C79.6104 42.4537 79.6928 42.5126 79.787 42.5833C79.8929 42.6657 80.0106 42.7482 80.1166 42.8307L81.376 38.9424C81.3171 38.9424 81.2583 38.9424 81.1994 38.9424C81.1053 38.9424 81.0111 38.9424 80.9169 38.9424L84.6952 26.6885C84.5775 26.6768 84.4598 26.665 84.3303 26.6532L80.5403 38.9542L79.481 42.3594Z"></path>
<path fill="black" d="M78.3144 41.6053C78.4321 41.676 78.5498 41.7467 78.6675 41.8292L79.256 39.0602C79.103 39.072 78.95 39.0956 78.8087 39.1074L81.2923 26.5C81.2569 26.5 81.2216 26.5 81.1863 26.5C81.1039 26.5 81.0215 26.5 80.9392 26.5L78.4439 39.1545L77.9966 41.405C78.0084 41.4168 78.0201 41.4168 78.0319 41.4285C78.1261 41.4875 78.2202 41.5464 78.3144 41.6053Z"></path>
</svg>
