<svg xmlns="http://www.w3.org/2000/svg" fill="none" viewBox="0 0 150 115" height="115" width="150">
<path fill="black" d="M21.0013 74.6108H40.584V77.3877H21.0013V74.6108ZM21.0013 72.0863H40.584V69.3094H21.0013V72.0863ZM26.5963 66.7849H34.9889V64.008H26.5963V66.7849ZM26.5963 61.4836H34.9889V58.7067H26.5963V61.4836ZM26.5963 56.1822H34.9889V53.4053H26.5963V56.1822ZM34.9889 48.104H26.5963V50.8809H34.9889V48.104ZM21.0013 45.5795H40.584V42.8026H21.0013V45.5795ZM21.0013 40.2782H40.584V37.5013H21.0013V40.2782ZM43.3815 72.0863H73.2312C73.7322 71.228 74.1137 70.2965 74.3578 69.3094H43.3815V72.0863ZM70.894 58.7067H48.9766V61.4836H73.2287C72.6132 60.4309 71.8223 59.4918 70.894 58.7067ZM48.9766 53.4053V56.1822H70.894C71.8223 55.3971 72.6132 54.458 73.2287 53.4053H48.9766ZM73.2312 42.8026H43.3815V45.5795H74.3553C74.1137 44.5925 73.7297 43.6609 73.2312 42.8026ZM63.9815 37.5013H43.3815V40.2782H71.1865C69.2867 38.554 66.7587 37.5013 63.9815 37.5013ZM48.9766 50.8809H57.3692V48.104H48.9766V50.8809ZM65.2531 50.8809H74.2892C74.5308 49.9948 74.663 49.0658 74.663 48.104H65.2531V50.8809ZM48.9766 66.7849H57.3692V64.008H48.9766V66.7849ZM65.2531 64.008V66.7849H74.663C74.663 65.8231 74.5308 64.8941 74.2892 64.008H65.2531ZM43.3815 77.3877H63.9815C66.7791 77.3877 69.2867 76.335 71.1865 74.6108H43.3815V77.3877ZM99.3271 77.3877L100.304 74.6108H98.3581L99.3271 77.3877ZM97.468 72.0863H101.199L102.181 69.3094H96.4838L97.468 72.0863ZM95.5911 66.7849H103.071L104.052 64.008H94.6069L95.5911 66.7849ZM93.7168 61.4836H104.948L105.929 58.7067H92.7351L93.7168 61.4836ZM82.547 50.8809H97.6613L96.6872 48.104H82.547V50.8809ZM102.86 45.5795H121.712V42.8026H103.834L102.86 45.5795ZM105.69 37.5013L104.719 40.2782H121.712V37.5013H105.69ZM76.9519 77.3877H90.9396V74.6108H76.9519V77.3877ZM76.9519 72.0863H90.9396V69.3094H76.9519V72.0863ZM82.547 66.7849H90.9396V64.008H82.547V66.7849ZM82.547 61.4836H90.9396V58.7067H82.547V61.4836ZM116.117 48.104H101.975L101.001 50.8809H116.117V48.104ZM107.725 56.1822H116.117V53.4053H100.118L99.3322 55.6496L98.5463 53.4053H82.547V56.1822H90.9396V53.63L91.8424 56.1822H106.822L107.725 53.63V56.1822ZM116.117 58.7067H107.725V61.4836H116.117V58.7067ZM107.725 66.7849H116.117V64.008H107.725V66.7849ZM107.725 72.0863H121.712V69.3094H107.725V72.0863ZM107.725 77.3877H121.712V74.6108H107.725V77.3877ZM95.8047 45.5795L94.8307 42.8026H76.9519V45.5795H95.8047ZM93.9482 40.2782L92.9741 37.5013H76.9519V40.2782H93.9482ZM124.726 75.3151C124.726 74.0756 125.677 73.1314 126.862 73.1314C128.048 73.1314 128.999 74.0756 128.999 75.3151C128.999 76.5571 128.048 77.4987 126.862 77.4987C125.677 77.5013 124.726 76.5571 124.726 75.3151ZM128.498 75.4539V75.1788C128.498 74.2876 127.793 73.5883 126.862 73.5883C125.932 73.5883 125.227 74.2876 125.227 75.1788V75.4539C125.227 76.3451 125.932 77.0443 126.862 77.0443C127.793 77.0443 128.498 76.3451 128.498 75.4539ZM126.542 76.441H125.998V74.2245H127.012C127.513 74.2245 127.77 74.5224 127.77 74.9238C127.77 75.2747 127.61 75.4968 127.363 75.5928L127.864 76.441H127.267L126.85 75.6786H126.539V76.441H126.542ZM126.949 75.2747C127.119 75.2747 127.216 75.2015 127.216 75.0424V74.8834C127.216 74.7244 127.119 74.6511 126.949 74.6511H126.542V75.2772H126.949V75.2747Z"></path>
</svg>
