<svg xmlns="http://www.w3.org/2000/svg" fill="none" viewBox="0 0 150 115" height="115" width="150">
<path fill="#A7A9AC" d="M86.9074 31.5975H91.0088C90.9328 35.3432 89.5651 39.0716 86.9074 42.0344V31.5975ZM75.3542 43.2136H85.7346C82.7877 45.888 79.0816 47.2612 75.3542 47.3405V43.2136ZM74.6838 43.2136V47.3405C70.9579 47.2612 67.2527 45.888 64.3049 43.2136H74.6838ZM63.133 31.5975V42.0344C60.5482 39.1556 59.0996 35.4906 59.0236 31.5975H63.133ZM63.133 30.9255H59.0236C59.0996 27.0291 60.5482 23.3634 63.133 20.4877V30.9255ZM74.6838 19.307H64.3049C67.2527 16.6326 70.9579 15.2585 74.6838 15.1817V19.307ZM75.3542 19.307V15.1817C79.0816 15.2585 82.7869 16.6326 85.7338 19.307H75.3542ZM86.9074 20.4877C89.5651 23.4506 90.9328 27.1749 91.0088 30.9255H86.9074V20.4877ZM75.8272 30.9255L86.2378 20.456V30.9255H75.8272ZM75.8256 31.5975H86.2378V42.0669L75.8256 31.5975ZM75.3542 32.0753L85.7632 42.54H75.3542V32.0753ZM74.6838 32.0737V42.54H64.2764L74.6838 32.0737ZM74.2107 31.5975L63.8025 42.0645V31.5975H74.2107ZM74.2084 30.9255H63.8025V20.4584L74.2084 30.9255ZM75.3542 19.9806H85.7639L75.3542 30.45V19.9806ZM74.6838 30.4516L64.2732 19.9806H74.6838V30.4516ZM86.8075 19.4068H86.8067C80.3091 12.8694 69.7297 12.8694 63.2312 19.4068C60.0846 22.5718 58.3477 26.7819 58.3477 31.2583C58.3477 35.7371 60.0846 39.9464 63.2312 43.1145C66.4824 46.3817 70.7479 48.0172 75.0198 48.0172C79.2892 48.0172 83.5595 46.3801 86.8075 43.1145C93.3076 36.5786 93.3076 25.9427 86.8075 19.4068"></path>
<path fill="#231F20" d="M86.562 43.9501C86.3171 43.9501 86.035 43.8558 85.7466 43.5665L64.5221 22.2258L64.5213 42.8122V42.8312L64.5198 42.8779C64.4873 43.6593 63.8739 43.9453 63.4587 43.9453C62.87 43.9453 62.3945 43.4675 62.3945 42.8779V19.6457C62.3945 19.0625 62.8605 18.5894 63.4373 18.5767C63.7226 18.572 64.0015 18.6813 64.2107 18.8898C64.4017 19.0815 80.0904 34.8594 85.501 40.297V20.0958C82.6578 17.3897 78.9494 15.9031 75.0127 15.9031C74.424 15.9031 73.9485 15.4253 73.9485 14.8334C73.9485 14.2446 74.424 13.7644 75.0127 13.7644C79.6641 13.7644 84.0318 15.5854 87.3156 18.8898C87.5145 19.0902 87.627 19.3628 87.627 19.6457V42.8779C87.627 43.3098 87.3686 43.6997 86.9717 43.8629C86.856 43.9136 86.7165 43.9501 86.562 43.9501Z"></path>
<path fill="#231F20" d="M113.096 96.4058L111.34 98.5643V100.702C111.34 100.9 111.18 101.06 110.985 101.06C110.79 101.06 110.63 100.9 110.63 100.702V98.5643L108.867 96.3987C108.744 96.2473 108.765 96.0207 108.917 95.8963C109.067 95.7726 109.29 95.7948 109.415 95.947L110.985 97.8757L112.556 95.947C112.593 95.901 112.642 95.863 112.698 95.8424C112.878 95.7703 113.084 95.8574 113.158 96.0397C113.21 96.1673 113.179 96.3107 113.096 96.4058ZM73.5198 98.0826H76.4984V96.9193C76.0864 96.5516 75.5642 96.3479 75.0071 96.3479C74.4517 96.3479 73.9295 96.5516 73.5198 96.9193V98.0826ZM73.164 101.06C72.9675 101.06 72.8098 100.9 72.8098 100.705V98.516C72.8035 98.4914 72.8003 98.4653 72.8003 98.4368C72.8003 98.4098 72.8035 98.3853 72.8098 98.3591V96.7679C72.8098 96.6728 72.8455 96.5833 72.9112 96.5167C73.4699 95.9501 74.2147 95.6371 75.0071 95.6371C75.8011 95.6371 76.546 95.9501 77.103 96.5167C77.1688 96.5833 77.2076 96.6728 77.2076 96.7679V98.4368C77.2076 98.6349 77.0484 98.7934 76.8526 98.7934H73.5198V100.705C73.5198 100.9 73.3605 101.06 73.164 101.06ZM49.5195 99.9535C49.9316 100.324 50.4546 100.523 51.0108 100.523C51.5655 100.523 52.0885 100.324 52.5006 99.9535V96.9193C52.0885 96.5516 51.5655 96.3479 51.0108 96.3479C50.4546 96.3479 49.9316 96.5516 49.5195 96.9193V99.9535ZM51.0108 101.236C50.2161 101.236 49.4728 100.925 48.9157 100.358C48.8492 100.293 48.8127 100.201 48.8127 100.109V96.7679C48.8127 96.6728 48.8492 96.5833 48.9157 96.5167C49.4728 95.9501 50.2161 95.6371 51.0108 95.6371C51.804 95.6371 52.5465 95.9501 53.1044 96.5167C53.1725 96.5833 53.209 96.6728 53.209 96.7679V100.109C53.209 100.201 53.1725 100.293 53.1044 100.358C52.5465 100.925 51.804 101.236 51.0108 101.236ZM61.1607 101.06C60.965 101.06 60.8073 100.9 60.8073 100.705V96.1696C60.8073 96.0207 60.9024 95.8868 61.0426 95.836C61.1829 95.7845 61.3422 95.8305 61.4365 95.947L62.9967 97.8757L64.5752 95.9446C64.6703 95.8305 64.8279 95.7853 64.969 95.836C65.1092 95.8883 65.2027 96.0207 65.2027 96.1696V100.705C65.2027 100.9 65.0451 101.06 64.8493 101.06C64.6536 101.06 64.4959 100.9 64.4959 100.705V97.1649L63.2709 98.6642C63.2043 98.745 63.1021 98.7934 62.9959 98.7934C62.8905 98.7934 62.7899 98.745 62.7209 98.6618L61.5149 97.1705V100.705C61.5149 100.9 61.3548 101.06 61.1607 101.06ZM101.114 100.927C101.11 100.928 101.108 100.929 101.108 100.931C101.094 100.946 101.079 100.964 101.06 100.98C101.042 100.991 101.027 101.001 101.011 101.011C101.01 101.013 101.008 101.013 101.007 101.015C100.99 101.023 100.974 101.032 100.958 101.037C100.956 101.039 100.951 101.039 100.949 101.041C100.932 101.047 100.916 101.05 100.899 101.054L100.889 101.055C100.87 101.059 100.853 101.06 100.838 101.06H100.835C100.824 101.06 100.809 101.06 100.799 101.059C100.794 101.059 100.793 101.057 100.792 101.057C100.78 101.055 100.771 101.054 100.76 101.053C100.755 101.053 100.754 101.049 100.75 101.049C100.743 101.047 100.735 101.044 100.725 101.042C100.721 101.041 100.718 101.039 100.713 101.037C100.708 101.033 100.698 101.032 100.691 101.028C100.686 101.026 100.683 101.023 100.677 101.022C100.673 101.02 100.666 101.015 100.657 101.011C100.654 101.009 100.65 101.007 100.646 101.003C100.637 100.999 100.633 100.996 100.628 100.991C100.624 100.989 100.619 100.986 100.615 100.981C100.608 100.976 100.603 100.972 100.597 100.966C100.595 100.964 100.592 100.96 100.587 100.957C100.576 100.948 100.568 100.94 100.561 100.931H100.56L97.501 97.1681V100.705C97.501 100.9 97.3441 101.06 97.1476 101.06C96.9511 101.06 96.7934 100.9 96.7934 100.705V96.1696C96.7934 96.1586 96.7942 96.1483 96.7958 96.1364C96.7966 96.1142 96.8005 96.0904 96.8093 96.0714V96.0682C96.8156 96.046 96.8235 96.0278 96.833 96.008C96.8338 96.0072 96.8338 96.0056 96.8354 96.0048C96.8457 95.9834 96.8576 95.966 96.8719 95.9501C96.8742 95.9494 96.8742 95.947 96.875 95.947C96.8877 95.9272 96.9043 95.9113 96.9234 95.8963H96.9242C96.9416 95.882 96.9614 95.8677 96.9804 95.8566C96.9812 95.8566 96.9844 95.8566 96.9852 95.8551C97.005 95.8448 97.0248 95.836 97.047 95.8313C97.0486 95.8305 97.0494 95.8305 97.0509 95.8305C97.0715 95.8234 97.0906 95.8194 97.1135 95.8186C97.1135 95.8162 97.1159 95.8186 97.1175 95.8162C97.1278 95.8162 97.1357 95.8139 97.1476 95.8139C97.1817 95.8139 97.2158 95.821 97.2483 95.8305C97.2483 95.8313 97.2506 95.8313 97.2506 95.8313C97.2704 95.836 97.2918 95.8448 97.3093 95.8551C97.3101 95.8566 97.3124 95.8566 97.314 95.8574C97.333 95.8677 97.3505 95.8788 97.3663 95.8939C97.3703 95.8955 97.3711 95.8963 97.3727 95.8963C97.3877 95.9105 97.4067 95.9272 97.4218 95.947L100.482 99.7054V96.1696C100.482 95.9739 100.64 95.8162 100.835 95.8162C101.03 95.8162 101.189 95.9739 101.189 96.1696V100.705C101.189 100.715 101.189 100.726 101.187 100.74C101.185 100.763 101.182 100.782 101.175 100.805V100.808C101.167 100.827 101.159 100.847 101.15 100.868C101.149 100.868 101.149 100.87 101.148 100.872C101.136 100.891 101.127 100.907 101.114 100.927V100.927ZM39.0171 101.236C38.2223 101.236 37.4774 100.925 36.9211 100.358C36.8554 100.29 36.8173 100.198 36.8173 100.108V96.7679C36.8173 96.6728 36.8554 96.5833 36.9211 96.5151C37.4774 95.9501 38.2223 95.6363 39.0171 95.6363C39.8102 95.6363 40.5535 95.9501 41.113 96.5151C41.2492 96.6562 41.2469 96.8804 41.1114 97.0199C40.9703 97.157 40.7461 97.157 40.6106 97.0175C40.1835 96.5857 39.6185 96.3479 39.0171 96.3479C38.4608 96.3479 37.9362 96.5508 37.5257 96.9193V99.9535C37.9362 100.324 38.4608 100.523 39.0171 100.523C39.6185 100.523 40.1835 100.288 40.6106 99.8584C40.7461 99.7149 40.9703 99.7149 41.1114 99.8536C41.2469 99.9923 41.2492 100.219 41.113 100.358C40.5535 100.925 39.8102 101.236 39.0171 101.236V101.236ZM85.512 98.4344V96.9153C85.9225 96.5492 86.4454 96.3472 86.9977 96.3472C87.554 96.3472 88.077 96.5492 88.489 96.9153V98.4344H85.512ZM86.9977 95.6371C86.2101 95.6371 85.4652 95.9494 84.9082 96.508C84.8432 96.5754 84.8036 96.6673 84.8036 96.76V100.702C84.8036 100.897 84.9629 101.059 85.1586 101.059C85.3535 101.059 85.512 100.897 85.512 100.702V99.1452H88.489V100.702C88.489 100.897 88.6467 101.059 88.8409 101.059C89.0374 101.059 89.1935 100.897 89.1935 100.702V96.76C89.1935 96.6673 89.157 96.5754 89.0936 96.508C88.5334 95.9494 87.7901 95.6371 86.9977 95.6371V95.6371ZM62.5371 57.2943C62.4 57.4321 62.4 57.658 62.5371 57.7959C62.675 57.9361 62.9008 57.9361 63.0379 57.7959C63.3874 57.4448 63.8232 57.2348 64.2772 57.1627V61.4893C64.2772 61.6867 64.4349 61.8443 64.6306 61.8443C64.8256 61.8443 64.9825 61.6867 64.9825 61.4893V57.1627C65.4389 57.2348 65.8755 57.4448 66.2234 57.7959C66.2923 57.868 66.385 57.8997 66.4722 57.8997C66.5641 57.8997 66.6536 57.868 66.7218 57.7959C66.8612 57.658 66.8612 57.4321 66.7218 57.2943C65.5688 56.1334 63.6932 56.1334 62.5371 57.2943ZM76.7465 56.6001C76.5507 56.6001 76.393 56.7594 76.393 56.9559V58.8656H73.4184V56.9559C73.4184 56.7594 73.2591 56.6001 73.0634 56.6001C72.8669 56.6001 72.71 56.7594 72.71 56.9559V61.4893C72.71 61.6867 72.8669 61.8443 73.0634 61.8443C73.2591 61.8443 73.4184 61.6867 73.4184 61.4893V59.5772H76.393V61.4893C76.393 61.6867 76.5507 61.8443 76.7465 61.8443C76.943 61.8443 77.1007 61.6867 77.1007 61.4893V56.9559C77.1007 56.7594 76.943 56.6001 76.7465 56.6001V56.6001ZM87.4613 60.6414C87.5992 60.7777 87.5992 61.0028 87.4629 61.1438C86.9058 61.7073 86.161 62.0203 85.3678 62.0203C84.5746 62.0203 83.8297 61.7073 83.2703 61.1438C83.2077 61.0765 83.1697 60.9862 83.1697 60.8934V59.2999C83.1633 59.2737 83.1609 59.2492 83.1609 59.2206C83.1609 59.1961 83.1633 59.1691 83.1697 59.1446V57.5502C83.1697 57.4583 83.2077 57.3672 83.2703 57.3006C83.8297 56.7348 84.5746 56.4226 85.3678 56.4226C86.161 56.4226 86.9058 56.7348 87.4629 57.3006C87.5992 57.4409 87.5992 57.6651 87.4613 57.8046C87.3234 57.9417 87.0984 57.9417 86.9621 57.803C86.5358 57.3711 85.9708 57.1358 85.3678 57.1358C84.8131 57.1358 84.2901 57.3355 83.8789 57.7055V58.8656H86.5033C86.6982 58.8656 86.8583 59.0241 86.8583 59.2206C86.8583 59.4187 86.6982 59.5772 86.5033 59.5772H83.8789V60.7405C84.2901 61.1082 84.8131 61.3095 85.3678 61.3095C85.9708 61.3095 86.5358 61.0717 86.9621 60.6422C87.0984 60.5028 87.3234 60.5004 87.4613 60.6414V60.6414ZM149.689 86.384C150.104 85.9664 150.104 85.2921 149.689 84.8745L144.459 79.612L149.498 74.5437C149.913 74.1269 149.913 73.4501 149.499 73.0317C147.832 71.3502 145.608 70.4239 143.232 70.4207H143.23H143.223H143.22C140.834 70.4239 138.603 71.3574 136.936 73.0492C136.728 73.2584 136.619 73.5421 136.626 73.8321V85.6439C136.626 86.2327 137.101 86.6978 137.689 86.6978C138.278 86.6978 138.753 86.22 138.753 85.6289V74.26C139.982 73.1601 141.553 72.5595 143.227 72.5595C144.673 72.5595 146.045 73.0103 147.186 73.8464L142.202 78.8592C141.787 79.2752 141.787 79.9535 142.202 80.368L148.186 86.384C148.395 86.594 148.668 86.6978 148.937 86.6978C149.21 86.6978 149.481 86.594 149.689 86.384V86.384ZM32.2143 78.8236V74.2505C30.9789 73.1514 29.4044 72.5515 27.742 72.5515C26.0771 72.5515 24.505 73.1514 23.2689 74.2505V78.8236H32.2143ZM34.0241 73.0349C34.223 73.2354 34.3347 73.5072 34.3347 73.7893V85.6336C34.3347 86.2224 33.8593 86.701 33.2745 86.701C32.6889 86.701 32.2143 86.2224 32.2143 85.6336V80.9583H23.2689V85.6336C23.2689 86.2224 22.7934 86.701 22.2094 86.701C21.6215 86.701 21.1476 86.2224 21.1476 85.6336V73.7893C21.1476 73.5072 21.2593 73.2354 21.459 73.0349C23.1357 71.3478 25.3679 70.4191 27.742 70.4191C30.1144 70.4191 32.345 71.3478 34.0241 73.0349V73.0349ZM57.602 70.9572C57.0141 70.9572 56.5402 71.4334 56.5402 72.0222V85.6336C56.5402 86.2224 57.0141 86.701 57.602 86.701C58.1884 86.701 58.6623 86.2224 58.6623 85.6336V72.0222C58.6623 71.4334 58.1884 70.9572 57.602 70.9572V70.9572ZM76.2163 74.5413C76.6316 74.9557 77.3035 74.9557 77.7156 74.5413C78.1308 74.1237 78.1308 73.447 77.7156 73.0317C74.2528 69.5498 68.6164 69.5498 65.1512 73.0317C64.9516 73.233 64.8398 73.5009 64.8398 73.7861V83.8633C64.8398 84.1462 64.9516 84.4165 65.1512 84.6177C66.8834 86.3595 69.1584 87.2319 71.4334 87.2319C73.7092 87.2319 75.9842 86.3595 77.7156 84.6177C77.9168 84.4165 78.0278 84.1312 78.0278 83.8499V78.8695C78.0278 78.2792 77.5523 77.8021 76.9652 77.8021H71.4318C70.8478 77.8021 70.3716 78.2792 70.3716 78.8695C70.3716 79.4567 70.8478 79.9337 71.4318 79.9337H75.9065V83.4037C73.3597 85.6621 69.5094 85.6621 66.9603 83.4022V74.2481C69.6156 71.8915 73.6814 71.9913 76.2163 74.5413V74.5413ZM100.85 73.0317C100.435 73.4486 100.435 74.1237 100.85 74.5429C101.263 74.9557 101.935 74.9557 102.35 74.5429C103.4 73.4858 104.711 72.8519 106.075 72.6363V85.6336C106.075 86.2224 106.551 86.701 107.137 86.701C107.721 86.701 108.196 86.2224 108.196 85.6336V72.6371C109.56 72.8519 110.87 73.4858 111.919 74.5429C112.126 74.7497 112.397 74.8543 112.669 74.8543C112.939 74.8543 113.212 74.7497 113.418 74.5429C113.833 74.1237 113.833 73.4486 113.42 73.0317C109.955 69.5459 104.316 69.5459 100.85 73.0317V73.0317ZM128.715 74.2505C127.479 73.1514 125.905 72.5515 124.242 72.5515C122.579 72.5515 121.006 73.1514 119.771 74.2505V83.4022C121.006 84.5005 122.579 85.0995 124.242 85.0995C125.905 85.0995 127.479 84.5012 128.715 83.4022V74.2505ZM130.524 73.0349C130.726 73.2354 130.834 73.5072 130.834 73.7893V83.8435C130.835 84.1288 130.726 84.4125 130.524 84.6169C128.847 86.3032 126.615 87.2327 124.242 87.2327C121.869 87.2327 119.636 86.3032 117.96 84.6161C117.761 84.4157 117.649 84.1439 117.649 83.8626V73.7893C117.649 73.5072 117.761 73.2354 117.96 73.0349C119.636 71.3478 121.869 70.4191 124.242 70.4191C126.615 70.4191 128.847 71.3478 130.524 73.0349V73.0349ZM94.5065 78.8236V74.2505C93.268 73.1514 91.6967 72.5515 90.0326 72.5515C88.367 72.5515 86.7981 73.1514 85.5619 74.2505V78.8236H94.5065ZM96.3148 73.0349C96.5169 73.2354 96.6254 73.5072 96.6254 73.7893V85.6336C96.6254 86.2224 96.1516 86.701 95.5644 86.701C94.982 86.701 94.5065 86.2224 94.5065 85.6336V80.9583H85.5619V85.6336C85.5619 86.2224 85.0857 86.701 84.5009 86.701C83.9145 86.701 83.4407 86.2224 83.4407 85.6336V73.7893C83.4407 73.5072 83.5524 73.2354 83.7505 73.0349C85.4288 71.3478 87.6578 70.4191 90.0326 70.4191C92.4083 70.4191 94.6389 71.3478 96.3148 73.0349V73.0349ZM49.6812 86.6305C50.0901 86.4728 50.3634 86.0734 50.3634 85.6328V72.0246C50.3634 71.435 49.8888 70.9548 49.3 70.9548C48.7121 70.9548 48.2359 71.435 48.2359 72.0246V82.853L38.9854 71.309C38.5915 70.8724 37.9188 70.8383 37.4845 71.2337C37.0479 71.6276 37.0154 72.3043 37.4077 72.7417L48.5108 86.3484C48.716 86.5774 49.0053 86.701 49.3 86.701C49.4276 86.701 49.5576 86.6764 49.6812 86.6305ZM15.3552 73.825V85.6336V85.6368C15.3552 85.6384 15.3528 85.6407 15.3528 85.6407C15.3496 86.2279 14.8765 86.7034 14.2917 86.7034C13.9574 86.7034 13.661 86.5465 13.4653 86.3056L2.1268 74.6451V85.6336C2.1268 86.2248 1.64899 86.7034 1.06261 86.7034C0.476236 86.7034 0 86.2248 0 85.6336V72.0016C0 71.1949 1.02774 70.5348 1.81856 71.2797C2.46199 71.9398 13.2283 83.0036 13.2283 83.0036V74.2671C11.9954 73.1601 10.4225 72.5563 8.75604 72.5563C8.16808 72.5563 7.69263 72.0769 7.69263 71.4889C7.69263 70.8978 8.16808 70.4207 8.75604 70.4207C11.1372 70.4207 13.3401 71.3479 15.0493 73.0587C15.2466 73.2528 15.3552 73.5318 15.3552 73.825"></path>
</svg>
