<svg xmlns="http://www.w3.org/2000/svg" fill="none" viewBox="0 0 150 115" height="115" width="150">
<path fill="black" d="M47.1581 88.963C47.0354 88.5718 46.677 87.6926 46.5794 87.0434C46.3639 85.6056 47.1156 84.6588 47.8058 84.4419C48.5805 84.2258 48.8831 84.6148 49.1829 85.5192C49.5706 86.8963 49.6138 88.7008 49.4835 91.2842C49.314 94.813 47.5486 99.0747 43.16 98.9861C39.3717 98.9032 37.6955 96.4495 37.5212 92.7059C37.4389 90.9411 37.5651 89.177 38.2959 86.6822C38.6835 85.3463 39.0294 84.8707 40.2322 84.6148C41.1777 84.4419 41.0926 85.4306 40.8785 86.5965C40.4072 89.177 40.1882 90.423 40.3626 93.3508C40.5313 96.4495 41.9544 97.655 43.5037 97.655C45.8277 97.6997 46.8597 95.7634 47.292 92.9632C47.6329 90.7263 47.3756 89.6505 47.1581 88.963ZM96.7084 92.0191C97.6135 92.0191 97.8728 93.0894 97.6567 93.7378C97.4405 94.3821 96.6673 95.117 95.4631 95.3311C95.2037 94.684 95.074 92.0191 96.7084 92.0191ZM79.8862 93.4777C79.8862 92.7491 79.4965 92.146 79.0272 92.146C78.6353 92.146 77.7352 92.5748 77.7352 93.9526C77.7352 95.0319 78.1187 95.5437 78.2944 95.7634C79.539 95.3743 79.8862 94.3389 79.8862 93.4777ZM66.5002 84.7006C66.4395 84.0103 65.8984 83.5403 65.1663 83.5403C64.3498 83.5403 63.5807 84.3973 63.6623 85.4739C63.7146 86.1837 64.133 86.7673 64.955 86.7673C65.8984 86.768 66.5866 85.6921 66.5002 84.7006ZM73.4986 87.2282C73.424 86.0247 73.1325 85.4815 72.4862 85.5262C71.6292 85.5778 71.2332 88.2741 71.4082 91.1084C71.5198 92.9576 71.7952 93.2428 72.0518 93.2246C72.5259 93.1961 73.6632 89.8924 73.4986 87.2282ZM102.045 91.7583C101.512 93.9707 99.8949 97.2255 97.4824 97.2255C96.9239 97.2255 95.9338 97.0087 95.9338 96.4495C95.9338 95.8464 99.7234 95.7634 99.7234 92.8781C99.7234 91.8036 98.734 90.2954 97.2697 90.2954C95.3334 90.2954 93.4445 92.4061 93.4445 95.3318C93.4445 97.9549 95.074 98.816 96.7091 98.816C99.5505 98.816 101.272 96.4906 102.175 94.5557C102.607 95.847 102.861 98.816 103.941 98.816C104.37 98.816 104.673 98.6005 105.19 97.4403C106.478 94.555 107.727 91.2416 109.45 91.2416C110.093 91.2416 109.707 92.406 111.256 92.406C111.986 92.406 112.501 91.8036 112.501 91.1119C112.501 90.1211 111.598 89.3493 110.223 89.3493C106.177 89.3493 105.319 95.4175 104.673 95.4175C103.596 95.4175 103.94 90.5541 103.164 90.5541C102.475 90.5534 102.137 91.3741 102.045 91.7583ZM67.62 96.9215C68.2649 96.9215 69.3743 96.7124 70.2473 95.3143C69.748 94.2057 69.3917 91.9654 69.3422 91.1496C69.0856 86.9779 70.6928 83.0537 72.452 82.9449C73.742 82.8668 74.7739 84.0877 74.8924 86.0658C75.2097 91.2639 73.4784 93.4338 72.6117 95.306C72.7581 96.0318 73.9895 97.2674 75.1511 97.2674C75.5799 97.2674 76.0987 97.0519 76.2291 96.8776C76.1426 96.5785 76.0548 96.1915 76.0548 95.6302C76.0548 92.618 77.9918 90.0779 79.6708 90.0779C81.0046 90.0779 81.7793 91.842 81.7793 93.0064C81.7793 94.3814 80.6163 95.5026 78.8961 96.5785C79.1987 96.8776 79.7552 97.0952 80.2307 97.0952C82.6857 97.0952 83.9701 94.1248 84.9212 91.4125C85.0927 90.8951 85.396 90.165 85.9971 90.165C87.0297 90.165 87.462 96.9648 89.1787 96.9648C89.9129 96.9648 90.5139 95.4573 90.5139 94.2984C90.5139 93.4366 90.2127 93.3501 90.2127 92.102C90.2127 90.7263 90.9448 89.5654 91.937 89.5654C92.5388 89.5654 92.7563 90.165 92.7563 90.8951C92.7563 93.65 90.774 98.7721 87.8518 98.7721C85.6533 98.7721 85.8248 94.9845 85.0509 94.9845C84.1863 94.9845 82.9814 98.8146 78.7253 98.8146C78.0336 98.8146 77.3036 98.4708 76.7025 97.7806C75.6713 98.4708 74.8081 98.7721 73.818 98.7721C72.2275 98.7721 71.5372 97.1363 70.8936 97.1363C70.1176 97.1363 69.2592 98.8146 66.6745 98.8146C64.6092 98.8146 64.2647 96.0632 63.5347 96.0632C62.8877 96.0632 61.8982 98.8146 60.8231 98.8146C59.013 98.8146 58.6295 94.039 57.0341 94.039C55.7867 94.039 51.8437 98.8892 50.7734 98.7783C50.3432 98.7337 50.1619 98.4123 50.2072 97.9814C50.2679 97.3859 50.7804 95.792 50.9882 95.0382C51.3361 93.7295 51.6554 92.2952 51.8339 91.8378C52.011 91.3762 52.4887 91.0471 52.8722 91.0826C53.0653 91.1008 53.1232 91.4613 53.1831 91.759C53.4007 92.823 53.704 93.908 54.0464 93.908C54.6509 93.908 56.6471 90.0772 57.8088 90.0772C59.2312 90.0772 59.4013 96.1036 61.3369 96.1036C61.984 96.1036 62.4588 95.3304 62.8876 94.3807C62.9316 92.7861 63.3618 90.5102 64.6524 90.5102C65.5568 90.5102 65.9877 92.5309 65.3399 94.2977C65.3385 96.4049 66.7142 96.9215 67.62 96.9215Z"></path>
<path fill="black" d="M97.5957 29.4375C97.2764 29.4375 96.819 29.4375 96.5673 28.9361C96.3609 28.5248 96.4306 27.8617 96.0422 27.5653C96.4306 27.679 96.8413 27.679 97.1606 27.679C98.1898 27.679 99.1729 26.9713 99.9274 26.9713C100.425 26.9713 100.585 27.2913 100.585 27.6099C100.586 28.6161 98.5566 29.4375 97.5957 29.4375ZM98.0978 32.018C100.471 32.018 102.643 30.1229 102.643 28.4564C102.643 27.679 102.276 27.0403 101.34 26.9259C101.5 27.1316 101.568 27.2913 101.568 27.6567C101.568 28.9131 99.6541 30.3063 97.5734 30.3063C96.819 30.3063 96.5903 30.8306 96.5903 31.1046C96.5903 31.7447 97.2081 32.018 98.0978 32.018ZM97.9158 32.9775C98.2135 35.146 101.5 38.0696 102.39 38.0006C102.986 37.9504 103.214 35.169 103.214 32.9775C103.214 31.7217 103.283 30.7393 102.62 30.5106C101.567 32.6351 98.8076 33.0688 97.9158 32.9775Z"></path>
<path fill="black" d="M46.5144 47.3404C47.2898 47.3404 47.1301 42.59 48.3859 42.59C48.6836 42.59 48.7749 42.887 48.7749 43.2524C48.7749 44.3255 48.2492 45.902 48.2492 46.7687C48.2492 47.2031 48.3635 47.3404 48.5692 47.3404C49.118 47.3404 50.0767 42.1103 51.0124 42.1103C51.3095 42.1103 51.4461 42.4073 51.4461 42.7043C51.4461 43.8004 50.0544 46.9514 50.0544 47.8418C50.0544 47.9791 50.099 48.0928 50.2141 48.0928C50.7851 48.0928 51.9266 45.6273 52.2912 44.3945C52.4969 43.7544 52.7709 43.4114 53.0227 43.4114C53.2507 43.4114 53.457 43.6631 53.457 44.1888C53.457 45.4216 52.3142 48.3215 51.3095 50.2634C50.5341 51.7701 49.3237 53.9379 49.3237 55.1484C49.3237 55.7655 49.4359 56.4042 50.327 57.1809C48.8656 57.0896 48.2722 56.9529 47.7248 55.8115C45.2809 60.6749 52.2229 60.1959 49.848 64.5098C49.4136 63.7352 45.9894 62.9354 45.9894 58.4144C45.9894 54.5097 49.4136 52.2262 49.4136 50.6057C49.4136 50.2864 49.3007 50.0123 49.0036 49.7613C48.2492 49.1205 48.2262 48.5969 47.6328 48.5969C47.1998 48.5969 46.6727 49.601 47.2214 50.4914C47.4048 50.7884 47.5645 50.9711 47.5645 51.2451C47.5645 51.8838 46.559 53.5956 45.852 53.5956C45.1436 53.5956 44.5969 51.8399 44.5969 49.0069C44.5969 46.494 45.1666 43.9608 45.875 43.9608C46.08 43.9608 46.1483 44.0975 46.1483 44.2808C46.1483 44.5779 46.0577 45.1705 46.0577 46.1753C46.0577 47.2484 46.3087 47.3404 46.5144 47.3404Z"></path>
<path fill="black" d="M52.3389 54.0301C53.299 54.0301 54.0974 53.321 54.0974 51.748V49.4177C54.0974 48.5273 54.1664 47.5233 54.7605 46.8141C54.6915 47.1119 54.6915 47.4312 54.6915 47.7283C54.6915 49.6924 55.7869 51.0403 55.7869 52.9347C55.7869 53.6417 55.5812 54.0308 55.0345 54.0308C54.5088 54.0308 54.5548 53.5511 54.4397 53.5511C54.3491 53.5511 54.2117 53.8474 54.2117 54.1675C54.2117 54.6472 54.5541 55.4002 55.5128 55.4002C56.3356 55.4002 56.9966 54.6472 56.9966 53.8021C56.9966 51.7487 55.3985 49.4637 55.3985 47.2722C55.3985 46.3128 55.6495 45.6741 55.8552 45.1707C55.8552 49.7155 59.7138 53.0261 59.7138 54.9205C59.7138 55.3549 59.3945 55.698 58.9148 55.698C58.3897 55.698 58.138 55.2859 58.138 54.9658C58.138 54.8062 58.115 54.7608 58.0467 54.7608C57.9107 54.7608 57.4993 55.2176 57.4993 55.8123C57.4993 56.5647 58.115 57.4795 59.2571 57.4795C60.5575 57.4795 61.266 56.382 61.266 55.4002C61.266 53.0037 56.5852 49.3724 56.5852 45.4914C56.5852 44.8283 56.6982 43.7552 57.1793 42.9339C54.165 44.8737 53.2293 47.4549 53.2293 49.7155C53.2293 51.6796 53.161 52.66 52.1562 52.66C51.6305 52.66 51.4938 52.1817 51.3104 52.1817C51.1738 52.1817 51.1047 52.5924 51.1047 52.706C51.1061 53.5504 51.7232 54.0301 52.3389 54.0301Z"></path>
<path fill="black" d="M86.9335 28.3192C87.2236 28.1247 88.5107 28.4329 90.1751 27.6101C90.3801 27.4978 90.5858 27.4518 90.7685 27.4518C91.5689 27.4518 91.3632 28.3645 92.0947 28.3645C92.6643 28.3645 93.3971 27.8848 93.8315 27.8848C94.5121 27.8848 95.4945 30.0317 95.4945 31.0364C95.4945 32.2009 93.7395 32.9093 91.6603 32.9093C88.6251 32.9093 86.7961 30.2604 86.7961 28.5472C86.7968 28.4105 86.8659 28.3645 86.9335 28.3192ZM91.912 31.2191C92.9174 31.2191 93.6712 30.7624 93.6712 30.4877C93.6712 30.3978 93.5345 30.3287 93.2368 30.3287C92.9397 30.3287 92.3457 30.3064 91.2259 30.123C90.265 29.9634 89.5343 29.598 89.2603 29.598C89.1689 29.598 89.1229 29.6433 89.1229 29.7116C89.1229 30.3064 90.2204 31.2191 91.912 31.2191Z"></path>
<path fill="black" d="M52.8189 62.6384C52.0659 62.8218 50.8547 64.0071 50.8547 65.8821C50.8547 68.1182 53.2526 71.5676 57.2026 71.5676C60.5355 71.5676 61.3583 69.261 61.3583 67.7068C61.3583 64.2596 59.2358 61.8387 56.4733 61.8387C54.9658 61.8387 53.618 62.9348 53.618 64.5552C53.618 66.0641 54.7601 68.3239 57.4766 68.3239C58.7554 68.3239 59.5085 67.4091 59.5085 66.3618C59.5085 65.3333 58.5727 63.9186 57.2019 63.9186C56.7912 63.9186 56.4949 64.1898 56.4949 64.6256C56.4949 65.1723 57.2472 65.7217 58.1844 65.7217C58.4117 65.7217 58.5951 65.6757 58.6871 65.6297C58.7317 65.7001 58.7554 65.8131 58.7554 65.9044C58.7554 66.4301 58.2527 66.7502 57.4766 66.7502C56.3122 66.7502 55.1931 65.8828 55.1931 64.5099C55.1931 63.6899 55.9015 63.0965 56.9286 63.0965C58.9604 63.0965 60.1702 64.8996 60.1702 66.7049C60.1702 68.3246 59.2812 69.2624 57.4536 69.2624C53.8 69.2617 52.0206 65.9727 52.8189 62.6384Z"></path>
<path fill="black" d="M78.8821 76.0175C79.9775 76.0175 79.9204 75.9262 80.2634 75.9262C80.6051 75.9262 80.6288 76.1319 80.6288 76.2692C80.6288 76.7719 79.509 77.3883 77.5225 77.3883C76.3581 77.3883 75.6496 76.7712 75.4446 76.0865C74.3032 76.8173 72.5684 77.4797 70.8553 77.4797C66.1752 77.4797 64.9878 75.4457 63.5256 74.7854C62.4065 74.2827 60.694 75.2652 58.2961 72.5932C58.6162 72.6623 59.0506 72.6846 59.3929 72.6846C61.4924 72.6846 62.6115 71.6589 62.6115 70.0134C62.6115 69.807 62.5885 69.5811 62.5655 69.3761C63.2056 69.6271 64.6677 70.7218 65.0108 72.6623C65.0554 72.891 65.9911 73.096 66.5852 73.096C67.408 73.096 68.4581 72.7529 68.6177 71.4072C71.358 71.1792 73.2085 69.5588 73.5969 67.5011C74.5772 67.8212 75.6963 68.7116 75.9704 69.1697C76.3587 69.033 76.8148 68.964 77.3398 68.964C78.0705 68.964 78.8933 69.1013 79.8744 69.3984C79.9204 69.1013 79.9657 68.736 80.4231 68.736C81.1078 68.736 80.9251 69.4897 81.1538 69.9213C81.2682 70.15 81.8399 70.2867 81.8399 70.7441C81.8399 71.1792 81.4725 71.3396 81.2445 71.3396C81.1531 71.3396 81.0388 71.3166 80.9698 71.2942C80.5137 71.4539 80.49 74.7401 78.5726 74.7401C77.1578 74.7401 75.856 73.5757 75.2843 72.1156C75.1246 71.6819 74.7822 71.4072 74.4622 71.4072C74.0975 71.4072 73.8918 71.4762 73.4588 71.9559C72.2261 73.3017 70.1705 74.4661 67.636 74.4661C66.8592 74.4661 66.2429 74.3964 66.0825 74.3964C65.9904 74.3964 65.9904 74.4194 65.9904 74.4417C65.9904 74.6021 66.7665 75.2191 68.4567 75.2191C72.4757 75.2191 73.4581 72.9579 74.0968 72.9579C74.1896 72.9579 74.4615 72.9579 74.6212 73.324C75.559 75.5148 77.6034 76.0175 78.8821 76.0175ZM77.1118 71.4539C77.1118 71.9566 77.5232 72.368 78.0259 72.368C78.5286 72.368 78.9393 71.9566 78.9393 71.4539C78.9393 70.9505 78.5286 70.5391 78.0259 70.5391C77.5232 70.5391 77.1118 70.9505 77.1118 71.4539Z"></path>
<path fill="black" d="M95.1982 60.0579C94.8781 60.0579 94.5358 60.3097 94.5358 60.9274C94.5358 61.61 95.0615 62.0451 95.3578 62.1811C95.5182 62.2738 95.7699 62.3652 96.0188 62.3652C96.6819 62.3652 97.2084 62.1811 97.2084 61.6324C97.2077 60.9274 96.1785 60.0579 95.1982 60.0579ZM92.7347 61.4727C92.255 61.4727 89.6026 65.012 87.8936 65.012C87.4829 65.012 87.1399 64.2359 87.1399 63.6447C87.1399 63.3246 87.3449 63.0959 88.0777 62.9348C92.004 62.0444 91.1352 59.0978 94.489 59.0978C96.3382 59.0978 98.3965 60.3557 98.3965 63.1859C98.3965 66.2001 94.1063 69.9437 93.4662 69.9437C92.9404 69.9437 92.3694 69.1907 92.3694 68.6887C92.3694 68.529 92.4384 68.3233 92.8951 68.1406C95.0845 67.2718 96.3389 65.263 96.3389 64.2345C96.3389 64.0058 96.2252 63.7799 95.9282 63.7799C95.5405 63.7799 93.8782 67.5689 92.0263 67.5689C90.7454 67.5689 89.443 66.4072 89.443 65.8578C89.443 64.943 93.1461 63.2549 93.1461 61.9747C93.1454 61.4943 92.9174 61.4727 92.7347 61.4727Z"></path>
<path fill="black" d="M47.5418 31.5391C47.5418 31.5391 46.8801 32.0404 46.0581 32.0404C45.077 32.0404 44.3003 31.3104 44.3003 30.2826C44.3003 29.5742 44.6656 28.8442 45.51 28.4781C45.4877 28.6155 45.4877 28.7291 45.4877 28.8665C45.487 30.169 46.2177 31.15 47.5418 31.5391ZM52.4283 35.9235C51.9262 36.5162 51.4005 37.5216 51.4005 38.5487C51.4005 39.7814 52.1549 40.8085 53.3194 40.8085C54.4378 40.8085 54.9635 39.8498 54.9635 38.8687C54.9635 37.3389 53.5704 36.2644 52.4283 35.9235ZM44.8483 36.8362C44.8051 36.9066 44.7793 36.9966 44.7793 37.0879C44.7793 37.2936 45.008 37.5216 45.2123 37.5216C45.395 37.5216 45.5093 37.4763 45.6007 37.4763C46.148 37.4763 46.7651 37.864 47.6555 37.864C48.1798 37.864 48.7969 37.7036 49.573 37.3166C51.2171 36.4938 51.8572 34.462 51.8572 34.119C51.8572 33.6846 51.5086 33.7417 51.2171 33.3422C50.9257 32.9441 51.0372 32.592 50.8517 32.4058C50.7465 32.2991 50.4187 32.2921 50.0067 32.2461C49.8693 32.2315 49.6866 32.2231 49.5039 32.2231C48.7516 32.2231 47.8584 32.3158 46.8557 32.9545C44.8755 34.2187 45.167 36.3112 44.8483 36.8362ZM50.2138 34.0046C50.372 34.2201 50.8085 34.485 50.8085 34.6447C50.8085 34.9634 50.6244 35.3754 50.2598 35.3754C49.46 35.3754 48.8213 34.165 48.8213 33.4789C48.8213 33.0459 49.073 33.0006 49.4147 33.0006C49.5744 33.0006 49.6434 33.0236 49.757 33.0919C49.962 33.2062 49.962 33.6623 50.2138 34.0046ZM48.1122 36.7909C47.3592 36.7909 46.5371 35.8552 46.5371 35.0094C46.5371 34.5534 46.8794 33.9816 47.1305 33.9816C47.2218 33.9816 47.2678 34.0506 47.2901 34.211C47.4268 35.3294 48.1582 35.9695 48.8436 36.2882C48.912 36.3335 48.958 36.3565 48.958 36.4018C48.958 36.5622 48.5236 36.7909 48.1122 36.7909ZM50.0541 31.0364C50.1677 30.6703 50.2591 30.215 50.2591 29.7116C50.2591 28.6162 49.7557 26.949 48.2035 26.949C47.3138 26.949 46.6731 27.6567 46.6731 28.5018C46.6731 30.3063 48.4776 31.0364 50.0541 31.0364ZM44.1399 40.1698C44.1399 41.9046 44.6656 42.7274 45.6014 42.7274C46.3321 42.7274 47.3138 42.2016 48.4776 41.1969C47.5879 41.4026 46.9018 41.5399 46.2861 41.5399C45.464 41.5399 44.8253 41.2199 44.1399 40.1698ZM44.9397 38.1373C44.9173 38.2523 44.9173 38.366 44.9173 38.4796C44.9173 39.5527 45.487 40.1468 46.2407 40.1468C46.8097 40.1468 47.4735 39.8045 48.0655 39.05C47.8159 39.0953 47.5181 39.1183 47.2441 39.1183C46.4004 39.1183 45.487 38.891 44.9397 38.1373ZM50.5338 37.8179C50.0074 37.9546 48.912 38.594 48.912 39.7354C48.912 40.5568 49.5507 41.0832 50.3504 41.0832C50.7618 41.0832 51.0581 40.9912 51.2408 40.8545C50.6021 40.2381 50.3734 39.5527 50.3734 38.8687C50.3734 38.3883 50.4418 38.092 50.5338 37.8179ZM51.3552 31.5614C51.3552 32.0634 51.7659 32.4755 52.2679 32.4755C52.7706 32.4755 53.182 32.0641 53.182 31.5614C53.182 31.0594 52.7706 30.6473 52.2679 30.6473C51.7659 30.6473 51.3552 31.0594 51.3552 31.5614ZM52.5419 33.6162C52.5419 34.119 52.954 34.5304 53.4574 34.5304C53.9588 34.5304 54.3701 34.119 54.3701 33.6162C54.3701 33.1149 53.9588 32.7035 53.4574 32.7035C52.9533 32.7035 52.5419 33.1149 52.5419 33.6162Z"></path>
<path fill="black" d="M88.1668 44.8275C88.1668 44.3714 88.5781 43.9831 89.0293 43.9831C89.5327 43.9831 89.9211 44.3714 89.9211 44.8275C89.9211 45.3525 89.532 45.7186 89.0293 45.7186C88.5781 45.7186 88.1668 45.3525 88.1668 44.8275ZM80.1496 37.7949C80.1496 38.2969 80.5617 38.7083 81.0623 38.7083C81.5665 38.7083 81.9778 38.2969 81.9778 37.7949C81.9778 37.2935 81.5658 36.8821 81.0623 36.8821C80.5617 36.8821 80.1496 37.2935 80.1496 37.7949ZM79.3743 41.0141C79.3743 41.7225 79.9662 42.3152 80.6754 42.3152C81.3824 42.3152 81.9778 41.7225 81.9778 41.0141C81.9778 40.3071 81.3824 39.7123 80.6754 39.7123C79.9662 39.7123 79.3743 40.3071 79.3743 41.0141ZM82.2519 39.5527C82.2519 40.3301 82.869 40.9458 83.6408 40.9458C84.4169 40.9458 85.036 40.3301 85.036 39.5527C85.036 38.7766 84.4169 38.1602 83.6408 38.1602C82.869 38.1602 82.2519 38.7766 82.2519 39.5527ZM82.3669 36.5844C82.3669 37.0648 82.7553 37.4539 83.2301 37.4539C83.7099 37.4539 84.0982 37.0648 84.0982 36.5844C84.0982 36.1061 83.7092 35.7177 83.2301 35.7177C82.7553 35.7177 82.3669 36.1061 82.3669 36.5844ZM86.4982 34.3936C86.4982 34.8719 86.8866 35.2603 87.367 35.2603C87.8467 35.2603 88.2358 34.8719 88.2358 34.3936C88.2358 33.9132 87.8467 33.5248 87.367 33.5248C86.8866 33.5248 86.4982 33.9132 86.4982 34.3936ZM84.7843 37.2022C84.7843 38.0005 85.4467 38.6622 86.2465 38.6622C87.047 38.6622 87.7101 38.0005 87.7101 37.2022C87.7101 36.4017 87.0477 35.7407 86.2465 35.7407C85.4467 35.7407 84.7843 36.4017 84.7843 37.2022ZM82.4346 42.5446C82.4346 43.0473 82.8459 43.4573 83.3445 43.4573C83.8472 43.4573 84.2593 43.0473 84.2593 42.5446C84.2593 42.0419 83.8472 41.6312 83.3445 41.6312C82.8459 41.6312 82.4346 42.0419 82.4346 42.5446ZM85.4244 40.7171C85.4244 41.2198 85.8351 41.6312 86.3392 41.6312C86.8413 41.6312 87.2526 41.2198 87.2526 40.7171C87.2526 40.2158 86.8413 39.8044 86.3392 39.8044C85.8351 39.8044 85.4244 40.2158 85.4244 40.7171ZM84.5793 43.937C84.5793 44.8044 85.2871 45.5129 86.1559 45.5129C87.0239 45.5129 87.7338 44.8044 87.7338 43.937C87.7338 43.0696 87.0239 42.3612 86.1559 42.3612C85.2871 42.3612 84.5793 43.0696 84.5793 43.937ZM87.869 41.9952C87.869 42.5899 88.3494 43.0696 88.9393 43.0696C89.5334 43.0696 90.0131 42.5899 90.0131 41.9952C90.0131 41.4025 89.5334 40.9228 88.9393 40.9228C88.3494 40.9228 87.869 41.4025 87.869 41.9952ZM87.8007 39.1183C87.8007 39.6447 88.2358 40.0784 88.7553 40.0784C89.2817 40.0784 89.7161 39.6447 89.7161 39.1183C89.7161 38.5939 89.2817 38.1602 88.7553 38.1602C88.2358 38.1602 87.8007 38.5939 87.8007 39.1183Z"></path>
<path fill="black" d="M90.1255 69.0784C89.5315 69.5358 88.1425 70.5615 85.8339 70.5615C84.6004 70.5615 84.0517 70.1731 83.869 70.1731C83.6403 70.1731 83.3893 70.4011 83.1376 70.6988C82.5951 71.3389 81.886 72.5264 81.886 73.8268C81.886 74.7395 82.5951 75.6515 83.9143 75.6515C88.1886 75.6515 91.3827 72.981 91.3827 70.8132C91.3827 69.5811 90.652 69.0784 90.1255 69.0784ZM88.9381 68.8274C89.1229 68.6698 89.1661 68.4167 89.1661 68.1643V67.6393C89.1661 66.9762 88.1655 66.5899 86.794 66.5899C85.1255 66.5899 84.2344 67.3415 84.2344 67.6623V68.7123C84.2344 69.1474 85.2405 69.5811 86.4747 69.5811C87.4571 69.5811 88.3482 69.3301 88.9381 68.8274ZM88.754 71.0879C88.8691 71.0879 89.005 71.1556 89.005 71.5676C89.005 72.069 88.7777 72.7307 87.9592 73.255C87.3881 73.6448 86.6106 73.9648 85.4685 73.985C85.6512 73.4391 85.7886 72.8666 85.7886 72.3214C85.7886 72.138 85.7663 72.0006 85.7432 71.7956H86.0403C87.8455 71.7963 88.6229 71.0879 88.754 71.0879Z"></path>
<path fill="black" d="M80.0352 43.1848C80.2862 45.1246 82.8919 44.1429 82.8919 46.4941C82.8919 46.8371 82.8006 47.3405 82.8006 47.7735C82.8006 48.2763 82.8452 48.71 83.2301 48.71C83.6178 48.71 83.7098 48.4366 83.7098 48.0706C83.7098 47.7045 83.6178 47.2485 83.6178 46.9975C83.6178 46.1977 84.1895 46.0157 84.5333 46.0157C85.4014 46.0157 86.0638 46.9061 87.3669 46.9061C87.0692 48.3676 84.0529 47.9792 84.0529 49.5781C84.0529 50.3778 84.8526 50.5591 85.3783 50.5591C85.8581 50.5591 86.0184 50.4908 86.0184 50.0808C86.0184 49.8514 85.9724 49.6004 85.9724 49.4407C85.9724 49.3487 86.0414 49.2573 86.1558 49.2573C86.6599 49.2573 89.1213 51.1302 89.1213 51.7019C89.1213 52.2263 86.5212 52.7513 85.7674 52.7513C85.5387 52.7513 85.4927 52.5916 85.4927 52.5003C85.4927 52.3406 85.8811 51.8609 85.8811 51.5876C85.8811 51.3819 85.5387 51.2445 84.6239 51.2445C84.1895 51.2445 83.8695 51.2905 83.8695 51.6336C83.8695 52.2486 84.8749 53.003 84.8749 53.5727C84.8749 54.0301 84.6009 54.3041 83.8695 54.3041C83.2524 54.3041 82.3195 53.8237 82.3195 53.0253C82.3195 52.3859 82.9784 51.7479 82.9784 51.3589C82.9784 51.2445 82.8912 51.0618 82.6172 51.0618C81.7707 51.0618 81.5427 53.2986 78.55 53.5504C79.0298 53.1167 79.4398 52.6369 79.4398 51.6566C79.4398 51.1769 79.3268 50.7878 79.3268 50.2635C79.3268 49.5781 79.6455 49.235 80.1022 49.235C80.9465 49.235 81.3579 50.4217 81.9081 50.4217C82.2058 50.4217 82.5252 50.1491 82.5252 49.7377C82.5252 48.0022 79.1901 48.2533 79.1901 45.81C79.1908 45.1476 79.4181 44.3256 80.0352 43.1848ZM90.9265 49.8751C90.9265 50.4447 91.1106 51.1072 91.6816 51.1072C92.1613 51.1072 92.572 50.3778 92.572 49.5781C92.572 48.6646 92.4123 47.9562 92.4123 47.5902C92.4123 47.4312 92.4814 47.3628 92.572 47.3628C92.9151 47.3859 93.2344 48.3216 93.6012 48.3216C94.0126 48.3216 94.6255 47.5671 94.8758 47.5671C94.9448 47.5671 94.9671 47.6592 94.9671 47.6815C94.9671 48.0245 94.4414 48.779 94.4414 49.0753C94.4414 49.3263 95.7669 49.3717 95.7669 49.6004C95.7669 49.9434 94.3772 49.9434 93.7155 50.2405C93.0761 50.5138 92.6857 50.8561 92.6857 51.3135C92.6857 51.7702 93.1431 51.8609 93.7832 51.8609C95.3088 51.8609 96.3826 51.0395 96.7249 51.0395C96.7933 51.0395 96.8386 51.0841 96.8386 51.1532C96.8386 51.3819 96.0625 52.1349 96.0625 52.478C96.0625 52.8656 97.4794 53.321 97.4563 53.5504C97.434 53.6187 97.342 53.641 97.1823 53.641C96.9299 53.641 96.5422 53.5727 96.2445 53.5727C96.0618 53.5727 95.9021 53.595 95.8324 53.6863C95.6741 53.8697 95.8784 55.0802 95.5605 55.0802C95.2628 55.0802 94.486 52.3859 92.7317 52.3859C92.48 52.3859 92.2973 52.5916 92.2973 52.934C92.2973 53.8467 93.1884 54.8968 94.0342 55.3995C94.417 55.6512 95.0578 55.9022 95.0578 56.0403C95.0578 56.3129 93.5998 56.0626 93.5998 56.5186C93.5998 56.93 93.7825 57.5478 93.7825 57.9117C93.7825 58.0261 93.7595 58.1621 93.6228 58.1621C93.3488 58.1621 92.685 56.907 92.3656 56.907C92.0916 56.907 91.4975 57.66 91.2458 57.66C91.1775 57.66 91.1322 57.5917 91.1322 57.5241C91.1322 56.9983 91.978 55.8116 91.978 54.6465C91.978 54.0984 91.9089 52.911 91.2458 52.911C90.6978 52.911 90.08 53.7784 89.806 54.6465C89.647 55.1485 89.7607 57.0897 89.3946 57.0897C89.0522 57.0897 89.1436 55.7886 88.6855 55.7886C88.3487 55.7886 87.6173 56.4043 87.3655 56.4043C87.3195 56.4043 87.2735 56.3813 87.2735 56.3359C87.2735 56.0626 87.9366 55.1715 87.9366 54.9888C87.9366 54.6465 86.4284 54.6011 86.4284 54.3271C86.4284 54.1667 87.0225 54.0531 87.5705 53.961C88.7322 53.7554 90.4454 52.911 90.4454 51.7242C90.4454 50.4001 89.1659 49.8284 88.325 49.2803C87.8906 49.0063 87.4109 48.779 87.4109 48.5963C87.4109 48.4129 87.9589 48.4129 88.1876 48.4129C88.53 48.4129 88.8689 48.3899 88.8689 48.1166C88.8689 47.9102 88.8228 47.5002 88.8228 47.1802C88.8228 46.9515 88.8451 46.7688 88.9379 46.7688C89.2802 46.7688 89.76 47.8872 89.9894 47.8872C90.354 47.8872 90.8567 46.9738 91.2005 46.9738C91.3135 46.9738 91.3602 47.0428 91.3602 47.2478C91.3616 48.0929 90.9265 49.0516 90.9265 49.8751Z"></path>
<path fill="black" d="M80.6971 56.1985C81.7485 56.3359 82.0002 56.7005 82.0002 56.9983C82.0002 57.501 81.5428 57.66 81.1077 57.66C80.7891 57.66 80.423 57.5916 80.0347 57.5916C79.5312 57.5916 79.0299 57.706 78.6192 58.1857C78.9155 58.231 79.3499 58.4374 79.3499 58.8948C79.3499 60.2189 75.674 59.1214 75.674 62.5255C75.674 64.3286 77.5468 66.2935 80.377 66.2935C81.8406 66.2935 82.777 65.8138 82.777 65.2643C82.777 64.8313 82.0009 65.127 82.0009 64.7616C82.0009 64.6019 82.275 64.3042 82.275 64.0518C82.275 63.9416 82.1836 63.7345 82.0009 63.7345C81.5882 63.7345 80.8114 64.3948 79.2356 64.3948C78.0021 64.3948 76.7917 63.6892 76.7917 62.7291C76.7917 62.5241 76.8837 62.409 77.0204 62.409C77.1577 62.409 77.3397 62.5011 77.5001 62.5011C77.6375 62.5011 77.6598 62.409 77.6598 62.1587C77.6598 61.907 77.6598 61.1986 78.0928 61.1986C78.5279 61.1986 79.3499 62.7974 82.503 62.7974C83.5496 62.7974 85.5835 62.5931 86.3379 61.907C86.3149 64.4192 84.3486 67.7298 80.2403 67.7298C75.9703 67.7298 73.6868 64.3042 73.6868 61.1526C73.6868 57.66 76.54 54.4867 80.446 54.4867C81.4494 54.4867 82.2966 54.8284 82.2966 55.2628C82.2959 55.8575 80.8107 55.4915 80.6971 56.1985ZM87.708 57.4104C87.8677 57.66 87.9367 57.9117 87.9367 58.1397C87.9367 58.7798 87.5023 59.3731 87.5023 60.0362C87.5023 60.7893 88.0741 61.405 88.938 61.405C89.8744 61.405 90.5145 60.6533 90.5145 59.7615C90.5145 58.5511 89.4177 57.524 87.708 57.4104ZM80.1483 58.8711C80.3756 59.0984 80.4453 59.3271 80.4453 59.5558C80.4453 59.8982 80.2857 60.2643 80.2857 60.6526C80.2857 61.1986 80.6971 61.679 81.2897 61.679C81.9305 61.679 82.3656 61.1756 82.3656 60.5843C82.3656 59.7162 81.4717 58.8711 80.1483 58.8711ZM83.1835 54.9888C85.5828 55.4455 86.8853 57.25 86.8853 58.9401C86.8853 60.1053 86.1545 61.1763 84.8744 61.1763C83.7085 61.1763 82.8676 60.3779 82.8676 59.0991C82.8676 58.1404 83.6165 57.1356 83.6165 56.1532C83.6165 55.7655 83.5028 55.3771 83.1835 54.9888ZM84.3716 58.026C84.3716 58.3454 84.6003 58.5971 84.9204 58.5971C85.285 58.5971 85.5144 58.277 85.5144 57.9117C85.5144 57.4327 85.0801 56.7703 84.6687 56.7703C84.4853 56.7703 84.5543 57.0443 84.509 57.3413C84.4853 57.5686 84.3716 57.8427 84.3716 58.026Z"></path>
<path fill="black" d="M59.1657 34.5304C59.9418 34.5304 60.8315 30.3287 60.8315 29.6202C60.8315 29.4376 60.7638 29.3002 60.6042 29.3002C59.8958 29.3002 58.9147 33.2969 58.9147 34.188C58.914 34.3477 58.9593 34.5304 59.1657 34.5304ZM64.7599 35.7861C65.3295 35.7861 65.9689 33.5933 65.9689 32.2231C65.9689 31.9261 65.9236 31.6074 65.7855 31.6074C65.3058 31.6074 64.5068 33.868 64.5068 35.1007C64.5075 35.5805 64.6225 35.7861 64.7599 35.7861ZM61.0358 33.7536C61.2868 33.7536 61.6068 33.4782 62.2023 32.8179C62.2469 32.5209 62.2469 32.2461 62.2469 31.9038C62.2469 31.4478 62.0642 30.9451 61.7909 30.9451C61.1048 30.9451 60.7631 32.7719 60.7631 33.2523C60.7638 33.5249 60.8998 33.7536 61.0358 33.7536ZM64.1651 32.8179C64.1651 32.4288 64.0731 32.3375 63.9824 32.3375C63.7537 32.3375 63.5034 32.6122 63.138 33.2286C63.1833 34.0507 63.3207 34.416 63.5487 34.416C63.7997 34.416 64.1651 33.6163 64.1651 32.8179ZM65.9236 30.123C67.4311 30.123 68.1151 31.4248 68.1151 32.8862C68.1151 33.5249 67.9338 34.462 67.6368 34.462C67.3397 34.462 67.3858 33.9363 67.3397 33.4566C67.2944 32.8402 67.1794 32.7035 66.9737 32.7035C66.5853 32.7035 66.335 33.6163 66.335 34.462C66.335 34.9864 66.4263 35.5805 66.8363 35.5805C67.065 35.5805 67.2707 35.4661 67.4081 35.3294C67.3167 36.3788 66.5393 37.2936 65.4439 37.2936C63.4344 37.2936 62.6806 34.9411 62.4533 33.5709C61.2429 34.8497 60.1245 35.7861 58.1142 35.7861C56.2428 35.7861 55.3977 34.416 55.3977 33.1149C55.3977 32.7259 55.5344 31.7218 56.0148 31.7218C56.5851 31.7218 56.0831 33.5933 57.2015 33.5933C57.4762 33.5933 57.9769 33.3646 58.2523 32.6122C58.412 32.1548 58.5033 31.6765 58.5033 31.2644C58.5033 30.6473 58.3667 30.2603 57.9099 30.2603C57.5209 30.2603 57.0412 30.556 56.8815 30.7163C57.4302 29.0722 58.7543 28.2278 60.2137 28.2278C62.0196 28.2278 62.9777 29.8259 62.9777 31.6074C62.9777 31.8578 62.9546 32.1318 62.9086 32.3835C63.6854 31.1047 64.7599 30.123 65.9236 30.123Z"></path>
<path fill="black" d="M61.6559 36.2644C60.6742 36.2644 60.6288 37.454 60.6288 39.8498C59.8974 38.2746 58.6883 36.5845 57.2722 36.5845C56.3135 36.5845 55.9488 37.2246 55.9488 38.3423C55.9488 38.571 55.9711 38.914 56.0171 39.1183C56.1315 38.7314 56.4968 38.571 56.9529 38.571C57.936 38.571 59.1227 39.324 59.8988 40.3525C59.0091 40.1928 58.141 40.0324 57.411 40.0324C56.9536 40.0324 56.5429 40.0785 56.2005 40.2381C55.5381 40.5345 54.6477 41.5169 54.6477 43.0014C54.6477 43.2301 54.6707 43.4804 54.7167 43.7544C55.5158 41.9729 57.639 41.1739 59.0091 41.1739C59.2838 41.1739 59.4881 41.1969 59.6485 41.2199C58.9401 41.8586 58.7811 42.9777 58.7344 43.7314C58.7128 44.0968 58.5747 44.1205 58.323 44.1205C58.323 44.8728 58.9177 45.9927 58.9177 46.563C58.9177 46.7687 58.8034 46.9514 58.6897 46.9974C58.6897 48.0022 59.6931 48.7329 59.6931 49.3716C59.6931 49.5313 59.6485 49.6686 59.5788 49.7377C59.6485 50.149 60.7529 50.84 60.8959 51.1866C61.0716 51.6077 61.2689 51.6788 61.3833 51.6788C61.7716 51.6788 62.3866 51.2214 62.3866 50.81C62.3866 50.6734 62.2723 50.5137 62.1823 50.4447C61.7479 50.126 61.5192 49.4406 61.3366 48.9846C61.1762 48.9846 60.9698 48.917 60.8973 48.6478C60.7725 48.1751 60.7662 47.2944 60.5835 46.7687C60.2865 46.7004 60.1491 46.586 60.1491 45.9696C60.1491 45.6726 60.3325 44.5075 60.3325 44.0961C60.1958 44.0961 60.0131 44.0048 60.0131 43.7307C60.0131 43.0007 60.7446 42.4296 60.9489 41.4939C62.2507 42.4519 62.5693 43.4337 62.5693 44.3025C62.5693 44.7578 62.501 45.1922 62.4096 45.6043C63.3691 45.1239 64.8075 44.4161 64.8075 42.9777C64.8075 42.1319 64.4192 41.1962 61.8386 40.8308C62.6376 40.5338 63.6431 40.3748 64.4875 40.3748C65.9496 40.3748 66.794 40.8308 66.976 41.8579C67.2731 41.4019 67.5018 40.8761 67.5018 40.3971C67.5018 39.2773 66.5646 38.548 65.3779 38.548C63.9848 38.548 62.752 39.2773 61.4272 40.1691C62.0227 38.9363 62.4313 38.2056 63.1634 38.2056C63.277 38.2056 63.3914 38.2286 63.5057 38.2516C63.2317 37.2476 62.2046 36.2644 61.6559 36.2644Z"></path>
<path fill="black" d="M100.128 52.7283C101.271 52.7283 102.185 54.2121 102.185 55.9483C102.185 57.7974 101.316 59.8076 99.7671 61.1763C99.7441 58.0944 95.9719 59.0762 95.9719 56.8394C95.9719 55.8806 96.6587 55.2405 97.4815 55.2405C98.2129 55.2405 98.784 55.4462 99.1954 55.8583C98.784 55.4692 98.5783 54.9205 98.5783 54.3962C98.5783 53.5267 99.127 52.7283 100.128 52.7283Z"></path>
<path fill="black" d="M79.7372 31.0364C80.3319 31.6075 80.8556 31.8578 81.4957 31.8578C81.7481 31.8578 82.0458 31.7902 82.2062 31.7902C82.4119 31.7902 82.5478 31.8808 82.5478 32.0405C82.5478 32.2922 82.3191 32.7036 82.0458 32.9323C82.3191 33.046 82.6169 33.092 82.9369 33.092C84.2338 33.092 85.719 32.2692 85.719 30.2151C85.9944 30.579 86.1541 31.3335 86.1541 31.6765C86.1541 34.1651 84.3252 35.1238 82.6392 35.1238C81.5424 35.1238 80.9929 34.7577 80.8549 34.7577C80.4219 34.7577 80.4449 35.6265 80.1479 35.6035C79.6221 35.5122 79.1438 34.3478 79.1438 33.115C79.1445 32.3836 79.3272 31.6075 79.7372 31.0364ZM83.1837 29.3693C83.0011 29.0723 82.3191 28.9133 82.0005 28.9133C80.9936 28.9133 80.3082 29.6203 80.1716 30.2604C80.0802 30.0317 80.0119 29.7577 80.0119 29.4836C80.0119 28.4789 80.6973 27.2461 82.3665 27.2461C83.8238 27.2461 84.3949 28.0222 84.6013 28.0222C84.8293 28.0222 85.058 27.7935 85.2414 27.7935C85.4924 27.7935 85.4924 28.1819 85.4924 28.4566C85.4924 29.3693 85.0803 30.9451 84.0525 31.5162C83.8692 31.1278 83.5038 30.6934 82.9139 30.4201C82.7542 30.3517 82.6859 30.2151 82.6859 30.0777C82.6852 29.826 82.9132 29.506 83.1837 29.3693Z"></path>
<path fill="black" d="M63.8699 24.3914C63.8699 25.1905 66.7238 29.0952 67.2725 29.0952C67.7299 29.0952 68.0716 28.2961 68.0716 27.61C68.0716 27.4287 68.0256 27.2467 67.9356 27.1087C67.5242 26.5376 64.6243 24.2541 63.9842 24.2541C63.9152 24.2541 63.8699 24.3231 63.8699 24.3914ZM47.0867 22.0396C47.0867 22.497 45.3519 24.0261 44.7363 24.0261C44.5083 24.0261 44.4385 23.7527 44.4385 23.5017C44.4385 23.0457 44.6442 22.4056 44.8959 22.1992C45.1916 21.9252 45.877 21.7899 46.402 21.7899C46.7214 21.7899 47.0867 21.8569 47.0867 22.0396ZM67.9356 23.3644C67.9356 21.9935 64.2311 19.505 64.1899 18.4326C64.1857 18.3343 64.2394 18.2367 64.3224 18.1495C64.9569 17.4802 67.5919 16.9921 67.5919 16.4217C67.5919 16.1261 67.0431 16.1261 66.7691 16.1261C64.6459 16.1261 61.5403 16.9021 61.5403 17.6552C61.5403 18.4326 64.3259 20.3278 64.3259 21.2642C64.3259 21.5152 64.1662 21.6066 63.9145 21.6066C63.1391 21.6066 61.449 20.6694 60.6499 20.6694C60.2845 20.6694 60.1465 20.9205 60.1465 21.2872C60.1465 22.3826 61.4483 24.4605 61.4483 25.0755C61.4483 25.1445 61.4253 25.2358 61.3339 25.2358C60.9225 25.2358 58.9835 22.9537 58.2973 22.9537C58.047 22.9537 58.0233 23.2953 58.0233 23.7981V24.5741C58.0233 25.0992 58.0003 25.4192 57.7507 25.4192C57.1552 25.4192 56.8819 23.7527 56.3115 23.7527C55.7175 23.7527 55.6031 26.7203 55.0335 26.7203C54.3704 26.7203 54.9414 23.455 54.302 23.455C53.5943 23.455 52.7945 25.6249 52.2918 25.6249C52.1098 25.6249 52.0645 25.4415 52.0645 25.2818C52.0645 24.6201 52.4515 23.547 52.4515 22.9084C52.4515 22.5876 52.3601 22.4056 52.0875 22.4056C51.3784 22.4056 49.8263 23.547 49.2329 23.547C49.1416 23.547 49.0272 23.5017 49.0272 23.4097C49.0272 22.863 51.5158 21.1268 51.5158 20.3508C51.5158 19.5964 48.0894 20.0998 48.0894 19.231C48.0894 18.501 50.5347 17.7472 50.5347 16.9935C50.5347 16.3311 47.6341 16.0354 46.5157 16.0354C45.1679 16.0354 44.4378 16.1937 44.4378 16.5821C44.4378 17.1762 47.4981 17.3595 47.4981 17.8839C47.4981 18.3866 44.3235 19.7337 44.3235 20.5098C44.3235 21.1952 48.7985 20.5551 48.7985 21.2642C48.7985 22.0396 44.8952 25.3955 44.8952 26.5146C44.8952 26.7663 45.0779 26.8807 45.3282 26.8807C46.5157 26.8807 49.5969 24.6201 50.4427 24.6201C50.7397 24.6201 50.7627 24.9848 50.7627 25.3049C50.7627 25.8989 50.5577 26.8116 50.5577 27.4747C50.5577 27.9991 50.6944 28.3644 51.1504 28.3644C51.9969 28.3644 52.7715 26.926 53.344 26.926C54.074 26.926 53.6403 31.15 54.7364 31.15C55.6721 31.15 56.0598 26.5836 56.6539 26.5836C57.248 26.5836 57.7284 27.9077 58.2757 27.9077C58.9597 27.9077 58.6404 25.6019 59.3718 25.6019C60.1702 25.6019 62.4537 28.3421 63.4815 28.3421C63.8008 28.3421 63.9145 28.0904 63.9145 27.7704C63.9145 26.5599 62.2257 23.8211 62.2257 22.9537C62.2257 22.7257 62.2934 22.6566 62.5444 22.6566C63.4348 22.6566 66.0391 23.8894 67.2711 23.8894C67.6853 23.8894 67.9356 23.6614 67.9356 23.3644ZM65.56 18.8433C65.56 19.254 66.9985 20.1451 67.6616 20.1451C68.0493 20.1451 68.1636 19.6194 68.1636 19.0713C68.1636 18.3866 67.868 18.3636 67.2732 18.3636C66.5195 18.3636 65.56 18.5693 65.56 18.8433ZM60.1939 16.5138C60.1939 16.3764 59.5092 16.239 58.5735 16.239C57.089 16.239 57.2947 17.4739 56.1533 17.4739C54.9658 17.4739 55.2615 16.1937 53.7547 16.1937C52.8413 16.1937 51.9976 16.3541 51.9976 16.5591C51.9976 16.8338 53.07 16.7194 53.07 17.4739C53.07 18.2723 50.7634 18.501 50.7634 18.9807C50.7634 19.1403 50.9454 19.2087 51.1741 19.2087C51.6775 19.2087 52.4752 18.9807 53.0469 18.9807C53.367 18.9807 53.664 19.0483 53.664 19.3453C53.664 19.9164 52.4299 20.9442 52.4299 21.4009C52.4299 21.5382 52.5435 21.5843 52.6579 21.5843C53.1153 21.5843 53.892 20.4191 54.6221 20.4191C55.8325 20.4191 55.0342 22.999 55.6952 22.999C56.3799 22.999 56.0835 20.4638 57.0653 20.4638C57.8657 20.4638 58.4584 22.2222 59.0065 22.2222C59.1438 22.2222 59.2575 22.1086 59.2575 21.9482C59.2575 21.4699 58.5728 20.4868 58.5728 19.8481C58.5728 19.4597 58.8468 19.2763 59.2122 19.2763C59.7365 19.2763 60.4449 19.5964 60.8319 19.5964C60.9686 19.5964 61.1059 19.551 61.1059 19.3914C61.1059 18.8433 59.0755 18.2499 59.0755 17.5422C59.0762 16.8338 60.1939 16.8338 60.1939 16.5138Z"></path>
<path fill="black" d="M100.676 20.2142C100.676 22.2453 99.1956 23.7982 96.5209 24.2319C96.8186 24.2542 97.0927 24.2542 97.3674 24.2542C100.493 24.2542 101.637 22.8394 101.637 21.6527C101.637 20.9896 101.271 20.3969 100.676 20.2142ZM96.8186 22.5194C96.8186 20.8982 92.9398 20.4868 92.9398 20.1222C92.9398 19.8258 95.1055 19.3224 96.2246 19.2994C94.5121 17.1079 92.0717 17.3366 92.0717 16.9482C92.0717 16.7195 93.8992 16.2621 95.5866 16.2621C97.002 16.2621 98.3268 16.5822 98.3268 17.6553C98.3268 18.25 97.8471 18.8671 97.8471 19.7791C97.8471 20.2819 98.0967 20.7156 98.7612 20.7156C99.471 20.7156 99.6293 19.9625 99.6293 19.162C99.6293 18.501 99.5157 17.9983 99.5157 17.6783C99.5157 16.7195 100.173 16.0808 101.11 16.0808C101.887 16.0808 102.07 16.4218 103.213 16.4218C102.595 16.7886 102.367 17.451 102.367 17.7696C102.367 18.7297 102.986 19.3914 102.986 21.3556C102.986 24.9619 99.607 26.2407 95.4722 26.2407C94.3357 26.2407 93.1231 26.1493 91.9343 25.9673C91.7523 25.9443 91.7063 25.899 91.7063 25.7847C91.7063 25.4876 93.3295 25.3273 93.3295 23.8672C93.3295 23.2954 93.1461 22.7481 93.1461 22.5431C93.1461 22.4287 93.2375 22.3597 93.3295 22.3597C93.6719 22.3597 94.3587 23.6838 95.6333 23.6838C95.9722 23.6838 96.8186 23.5695 96.8186 22.5194ZM100.539 17.474C100.539 17.7926 100.79 18.0436 101.11 18.0436C101.43 18.0436 101.682 17.7926 101.682 17.474C101.682 17.1539 101.43 16.9022 101.11 16.9022C100.79 16.9022 100.539 17.1539 100.539 17.474Z"></path>
<path fill="black" d="M98.51 38.5711C98.51 38.0921 97.2982 38.0467 97.1845 36.6989C97.1608 36.4939 97.0925 36.1293 96.8408 36.1293C96.4301 36.1293 96.7494 37.385 96.2927 37.385C95.2427 37.385 94.9003 35.3295 94.5119 35.3295C94.4199 35.3295 94.3111 35.3978 94.3111 35.6719C94.3111 35.9236 94.3571 36.0832 94.3571 36.3789C94.3571 36.6766 94.2874 36.8823 94.0141 36.8823C93.397 36.8823 92.8482 35.4432 92.3225 35.4432C92.2082 35.4432 92.0945 35.5122 92.0945 35.6265C92.0945 35.9006 92.5505 36.4019 92.5505 36.6536C92.5505 37.2024 91.0653 36.9046 91.0653 37.362C91.0653 37.5677 91.2703 37.6354 91.5451 37.6354C92.0255 37.6354 92.7799 37.4311 93.1683 37.4311C93.397 37.4311 93.7393 37.4764 93.7393 37.772C93.7393 38.0921 92.9166 38.5028 92.9166 38.7998C92.9166 38.9371 93.0532 39.0048 93.1676 39.0048C93.7847 39.0048 94.8766 37.9324 95.6533 37.9324C95.79 37.9324 96.1324 38.0007 96.1324 38.2064C96.1324 38.5028 95.3563 39.0271 95.3563 39.4615C95.3563 39.5758 95.426 39.7125 95.5627 39.7125C95.9713 39.7125 96.52 38.6401 97.2975 38.6401C97.5945 38.6401 98.0289 38.7545 98.2583 38.7545C98.4417 38.7545 98.51 38.6401 98.51 38.5711ZM99.1041 49.6457C99.4702 48.505 99.9276 47.7045 100.676 46.4718C99.9276 46.0848 97.9383 45.2613 97.9383 43.9142C97.9383 42.3384 99.9025 41.1056 100.31 41.1056C100.493 41.1056 100.538 41.266 100.538 41.563C100.538 42.3844 100.15 43.7085 100.15 44.4169C100.15 45.0556 100.561 45.6734 100.927 45.6734C101.315 45.6734 102.389 44.3033 102.389 42.9555C102.389 40.5346 100.264 39.8045 99.6061 39.8045C98.989 39.8045 97.8692 40.8086 95.242 40.8086C90.3339 40.8086 89.2141 35.9466 89.2141 33.822C89.2141 33.7307 89.2357 33.7077 89.2587 33.7077C89.3731 33.7077 89.8542 34.3024 91.407 34.3024C92.2068 34.3024 92.9382 34.096 94.104 34.096C96.8394 34.096 98.0512 35.9926 99.7428 38.4114C100.766 39.0501 103.212 40.0786 103.212 42.9785C103.212 45.536 100.492 46.9515 99.8341 49.6917C100.88 49.5781 101.498 47.7045 102.572 47.7045C103.12 47.7045 103.371 48.1389 103.371 48.825C103.371 49.8284 102.8 51.3366 101.703 52.2723C101.725 52.181 101.725 52.0659 101.725 51.9293C101.725 51.2906 101.475 50.3778 100.742 50.3778C99.6047 50.3778 99.2394 51.6106 98.6 52.637C97.9369 50.3088 97.0458 48.2073 95.4476 46.9285C93.8307 45.6274 91.0416 46.3344 91.0416 43.9602C91.0416 43.3201 91.4537 42.4074 91.4537 41.6767C91.4537 41.4257 91.4077 41.197 91.2696 41.0143C93.4639 41.8371 92.6865 43.2971 94.0364 44.8046C94.8766 45.7648 97.2068 46.6775 98.5547 50.6275C98.577 50.5138 98.6 50.2175 98.6 50.0118C98.6 46.6321 94.1263 43.3201 93.738 41.95C96.3367 42.2471 96.7934 42.8871 98.0275 46.3121C98.2806 47.0205 99.1041 48.779 99.1041 49.6457Z"></path>
<path fill="black" d="M86.6143 25.4876C85.0141 25.4876 83.9633 24.6892 83.9633 24.2771C83.9633 24.0715 84.1 23.9355 84.2841 23.9355C84.7861 23.9355 85.8829 24.7108 86.2476 24.7108C86.3403 24.7108 86.4079 24.6662 86.4079 24.5289C86.4079 24.1175 86.0196 23.4328 86.0196 23.0911C86.0196 22.9991 86.0886 22.9314 86.2253 22.9314C86.8416 22.9314 87.7557 23.1824 88.2369 23.1824C88.3965 23.1824 88.4419 23.0911 88.4419 22.9991C88.4419 22.497 86.956 21.5153 86.956 21.2183C86.956 20.9442 88.8023 20.5321 88.8023 20.0998C88.8023 19.6424 86.2922 19.9625 86.2922 19.5281C86.2922 19.2087 86.7726 18.6607 86.7726 18.4097C86.7726 18.2953 86.6806 18.25 86.5216 18.25C86.3159 18.25 85.2191 18.6837 84.7617 18.6837C84.5337 18.6837 84.259 18.6384 84.259 18.3176C84.259 17.7926 85.1501 17.2222 86.5446 17.2222C88.8016 17.2222 90.1508 18.775 90.1508 21.3779C90.1522 24.6662 87.8485 25.4876 86.6143 25.4876ZM82.163 21.1499C82.163 20.8982 81.2705 20.4192 81.2705 20.1452C81.2705 20.0998 81.3151 20.0768 81.3842 20.0768C81.6366 20.0768 82.071 20.1682 82.4147 20.1682C82.7117 20.1682 82.7571 18.8894 82.9816 18.8894C83.1413 18.8894 83.4146 20.0998 83.6677 20.0998C83.964 20.0998 84.5121 19.7568 84.7408 19.7568C84.7861 19.7568 84.8321 19.7791 84.8321 19.8258C84.8321 19.9855 84.2611 20.6012 84.2611 20.7839C84.2611 20.9895 85.5412 21.2413 85.5412 21.4239C85.5412 21.6526 84.2381 21.6296 84.2381 21.8353C84.2381 21.9936 84.7185 22.6337 84.7185 22.8394C84.7185 22.8854 84.6948 22.9084 84.6494 22.9084C84.4661 22.9084 83.7583 22.5877 83.5526 22.5877C83.3009 22.5877 82.8944 23.5241 82.6887 23.5241C82.6204 23.5241 82.5751 23.4328 82.5751 23.3184L82.5291 22.4057C82.5291 22.3143 82.4844 22.2223 82.3694 22.2223C82.0947 22.2223 81.5689 22.1993 81.4079 22.1993C81.2935 22.1993 81.2482 22.177 81.2482 22.131C81.2475 21.9483 82.163 21.3096 82.163 21.1499ZM81.4985 24.8928C81.8653 24.8928 81.9336 25.7846 82.0033 26.309C82.0486 26.5837 82.0947 26.606 82.209 26.606C82.4837 26.606 82.9167 25.5559 83.2103 25.5559C83.6433 25.5559 84.8098 26.7664 86.7517 26.7664C89.5129 26.7664 92.1178 24.8245 92.1178 21.4009C92.1178 18.0896 89.7855 16.1484 86.5683 16.1484C85.0385 16.1484 83.9173 16.9022 83.3232 16.9022C82.9628 16.9252 82.4147 16.0125 82.1393 16.0125C82.0256 16.0125 81.9113 16.2391 81.9113 16.6282C81.9113 16.8799 81.9113 17.6782 81.6366 17.6782C81.0871 17.6782 78.9646 16.1038 78.9646 16.6735C78.9646 17.1992 80.3787 18.798 80.3787 19.2087C80.3787 19.6194 78.987 20.0085 78.987 20.2818C78.987 20.7839 80.4707 20.8752 80.4707 21.5153C80.4707 22.154 78.9172 22.6567 78.9172 23.1364C78.9172 23.5241 80.4707 23.2508 80.4707 23.7298C80.4707 24.2088 79.3293 25.8076 79.3293 26.263C79.3293 26.378 79.3516 26.378 79.4423 26.378C79.8767 26.378 81.1785 24.8928 81.4985 24.8928Z"></path>
<path fill="black" d="M71.1547 64.9904C71.1547 65.1961 71.0856 65.4248 70.903 65.6521C70.6533 65.1961 69.9442 64.9674 69.6242 64.9681C67.2723 64.9681 68.1627 68.3708 65.6512 68.3708C64.6011 68.3708 64.5091 68.2334 64.1221 68.2334C63.9617 68.2334 63.8704 68.3024 63.8704 68.4391C63.8704 69.0339 64.7154 70.4939 67.0673 70.4939C69.4192 70.4939 71.6804 69.0562 71.6804 67.2733C71.6804 66.9762 71.6121 66.659 71.4747 66.3389C71.5661 66.2016 71.7955 66.1102 72.0005 66.1102C72.3651 66.1102 72.5708 66.523 72.9132 66.523C73.2792 66.523 73.5533 66.2476 73.5533 65.8829C73.5533 65.5845 73.3936 65.3802 73.1203 65.2415C73.3029 65.1055 73.4396 64.8768 73.4396 64.6258C73.4396 64.236 73.1649 63.8727 72.7075 63.8727C72.5018 63.8727 72.3658 63.9424 72.2061 64.0986C72.1615 63.69 71.9321 63.3017 71.4977 63.3017C71.1554 63.3017 70.903 63.552 70.903 63.9418C70.903 64.3043 71.1547 64.6028 71.1547 64.9904Z"></path>
<path fill="black" d="M58.6391 60.7447C60.4659 61.1986 61.3793 62.181 61.5613 63.3462C61.744 64.4646 61.972 65.3794 62.4057 65.8347C62.9768 66.4755 64.0959 67.043 65.0783 67.043C65.9004 67.043 66.5614 66.7718 66.5614 66.0174C66.5614 65.1946 65.443 63.3455 63.7988 63.3455C63.6392 63.3455 63.4335 63.3692 63.2048 63.3692C62.9991 63.3692 62.702 63.3238 62.52 63.1635C62.1554 62.8427 62.0403 61.1303 61.3556 60.1032C60.6026 58.9611 59.7805 58.641 58.6621 58.641C57.8637 58.641 56.9719 59.074 56.9719 59.7141C56.9719 60.1046 57.1776 60.3779 58.6391 60.7447ZM65.01 65.8584C64.3239 65.8584 63.2968 65.1263 63.2968 64.7149C63.2968 64.3718 63.6168 64.1891 63.8665 64.1891C64.4382 64.1891 65.4646 64.899 65.4646 65.4923C65.4653 65.652 65.3509 65.8584 65.01 65.8584Z"></path>
<path fill="black" d="M62.9111 48.0705C62.9111 46.6091 66.3828 45.833 66.3828 44.0285C66.3828 43.7315 66.2684 43.2071 66.0627 42.8188C67.2718 43.4805 68.1629 44.6003 68.1629 45.513C68.1629 47.0888 66.5194 47.8195 66.5194 48.802C66.5194 49.9434 68.2772 50.1261 68.2772 51.5415C68.2772 52.7053 66.6101 54.0531 66.6101 55.5598C66.6101 56.7243 67.4328 57.6823 68.6872 57.8427C68.2765 57.934 67.9119 58.0024 67.5235 58.0024C65.2162 58.0024 62.8421 56.1079 62.8421 53.8467C62.8421 52.7283 63.3218 51.7479 64.0511 51.0395C64.6919 51.5875 65.3306 51.9522 65.742 51.9522C66.1066 51.9522 66.2677 51.7702 66.2677 51.4962C66.2684 50.6504 62.9111 49.8751 62.9111 48.0705ZM70.1954 59.6019C69.4124 59.9603 69.1 59.8989 69.1 60.6987C69.1 60.995 69.031 61.3813 69.031 61.5877C69.031 61.8617 69.0763 62.0221 69.3956 62.0221C70.2184 62.0221 71.5202 60.6297 71.5202 59.4415C71.5202 59.1208 71.3368 58.9862 71.1311 58.9862C70.9484 58.9862 70.7441 59.3502 70.1954 59.6019ZM70.1041 57.957C70.1041 56.93 67.9802 56.907 67.9802 55.3542C67.9802 54.9651 68.2305 54.3041 68.7339 53.595C68.9403 54.7824 69.4179 55.3995 70.4471 55.7886C72.4782 56.5409 72.753 57.6823 72.753 58.8942C72.753 60.9497 71.3145 63.5066 67.6155 63.5066C64.6466 63.5066 62.5227 60.857 62.5227 58.6194C62.5227 58.0024 62.6824 57.3183 63.0708 57.3183C63.4138 57.3183 63.5275 57.5917 63.8015 57.865C64.8299 58.8942 65.9484 59.1668 67.5695 59.1668C69.031 59.1675 70.1041 58.5741 70.1041 57.957Z"></path>
<path fill="black" d="M53.9336 58.4521C53.9893 58.929 53.6484 59.3592 53.1722 59.415C52.6952 59.4708 52.2629 59.1291 52.2085 58.6529C52.1528 58.1752 52.4937 57.7436 52.9706 57.6879C53.4476 57.6321 53.8785 57.9744 53.9336 58.4521ZM49.6663 59.3501C49.7632 60.1297 50.4905 60.721 51.3112 60.6296C51.6075 60.5968 51.8822 60.516 52.0656 60.4016C52.2483 61.1316 52.8612 61.6016 53.6895 61.4928C54.5304 61.3834 55.1022 60.721 55.0115 59.8759C54.9878 59.6486 54.9425 59.5098 54.8749 59.3501C54.8749 59.3501 54.9857 59.3383 55.0694 59.3229C55.8943 59.1668 56.45 58.5051 56.381 57.706C56.2903 56.8839 55.5526 56.2738 54.7849 56.3686C54.4872 56.4049 54.2125 56.5185 54.0291 56.6782C53.8227 55.9942 53.1791 55.3994 52.3006 55.5445C51.5064 55.6763 50.9814 56.3498 51.0608 57.204C51.0741 57.3427 51.1062 57.501 51.1752 57.66C51.1752 57.66 51.0406 57.6802 50.9479 57.6934C50.2813 57.7924 49.5582 58.4632 49.6663 59.3501Z"></path>
</svg>
